<?xml version="1.0" encoding="utf-8"?>
<!-- Generator: Adobe Illustrator 18.0.0, SVG Export Plug-In . SVG Version: 6.00 Build 0)  -->
<!DOCTYPE svg PUBLIC "-//W3C//DTD SVG 1.1//EN" "http://www.w3.org/Graphics/SVG/1.1/DTD/svg11.dtd">
<svg version="1.1" id="Layer_1" xmlns="http://www.w3.org/2000/svg" xmlns:xlink="http://www.w3.org/1999/xlink" x="0px" y="0px"
	 viewBox="0 0 160 160" enable-background="new 0 0 160 160" xml:space="preserve">
<g>
	<g>
		<circle fill="#00D0CB" cx="80" cy="80" r="80"/>
	</g>
	<g>
		<g>
			<circle fill="#FFFFFF" cx="80" cy="80" r="42.2"/>
		</g>
		<g>
			<path fill="#00D0CB" d="M94.3,90.9c-3.2,3.9-8.1,6.3-13.5,6.2c-8.9-0.2-16.3-7.4-16.7-16.3c-0.5-9.8,7.4-18,17.1-18
				c5.3,0,10,2.4,13.1,6.1c0.7,0.8,1.7,1.1,2.7,0.7l6.3-2.2c1.5-0.5,2.1-2.4,1.2-3.7c-5.6-8-15.2-13-25.8-12.1
				C64.8,53,53.7,64.3,52.8,78.2c-1,16.4,12.1,30.2,28.3,30.2c9.6,0,18.2-4.8,23.3-12.2c0.9-1.3,0.4-3.2-1.2-3.7l-6.3-2.2
				C96,89.9,94.9,90.2,94.3,90.9z"/>
		</g>
	</g>
	<g>
		<path fill="#FFFFFF" d="M80.3,152h-0.5c-0.8,0-1.5-0.7-1.5-1.5s0.7-1.5,1.5-1.5h0.5c0.8,0,1.5,0.7,1.5,1.5S81.1,152,80.3,152z
			 M73.8,151.2c0,0-0.1,0-0.1,0l-0.5,0c-0.8-0.1-1.4-0.8-1.4-1.6c0.1-0.8,0.8-1.4,1.6-1.4l0.5,0c0.8,0.1,1.4,0.8,1.4,1.6
			C75.3,150.6,74.6,151.2,73.8,151.2z M86.2,151.2c-0.8,0-1.4-0.6-1.5-1.4c-0.1-0.8,0.5-1.5,1.4-1.6l0.5,0c0.8-0.1,1.6,0.5,1.6,1.4
			c0.1,0.8-0.5,1.6-1.4,1.6l-0.5,0C86.3,151.2,86.3,151.2,86.2,151.2z M67.4,150.4c-0.1,0-0.2,0-0.3,0l-0.5-0.1
			c-0.8-0.2-1.3-0.9-1.2-1.8s0.9-1.4,1.8-1.2l0.5,0.1c0.8,0.1,1.4,0.9,1.2,1.7C68.8,149.9,68.1,150.4,67.4,150.4z M92.6,150.4
			c-0.7,0-1.3-0.5-1.5-1.2c-0.1-0.8,0.4-1.6,1.2-1.7l0.5-0.1c0.8-0.2,1.6,0.4,1.8,1.2c0.2,0.8-0.4,1.6-1.2,1.8l-0.5,0.1
			C92.8,150.4,92.7,150.4,92.6,150.4z M61.1,148.9c-0.1,0-0.3,0-0.4-0.1l-0.5-0.1c-0.8-0.2-1.3-1.1-1-1.9c0.2-0.8,1.1-1.3,1.9-1
			l0.5,0.1c0.8,0.2,1.3,1.1,1,1.8C62.4,148.5,61.8,148.9,61.1,148.9z M98.9,148.9c-0.7,0-1.3-0.4-1.4-1.1c-0.2-0.8,0.2-1.6,1-1.8
			l0.5-0.1c0.8-0.2,1.6,0.2,1.9,1c0.2,0.8-0.2,1.6-1,1.9l-0.5,0.1C99.2,148.9,99.1,148.9,98.9,148.9z M55,146.9
			c-0.2,0-0.4,0-0.5-0.1l-0.5-0.2c-0.8-0.3-1.2-1.2-0.8-1.9c0.3-0.8,1.2-1.1,1.9-0.8l0.4,0.2c0.8,0.3,1.2,1.2,0.9,1.9
			C56.2,146.5,55.6,146.9,55,146.9z M105.1,146.9c-0.6,0-1.2-0.4-1.4-1c-0.3-0.8,0.1-1.6,0.9-1.9l0.5-0.2c0.8-0.3,1.6,0.1,1.9,0.8
			c0.3,0.8-0.1,1.6-0.8,1.9l-0.5,0.2C105.4,146.8,105.3,146.9,105.1,146.9z M49.1,144.3c-0.2,0-0.4,0-0.7-0.2l-0.5-0.2
			c-0.7-0.4-1-1.3-0.7-2c0.4-0.7,1.3-1,2-0.7l0.4,0.2c0.7,0.4,1.1,1.3,0.7,2C50.2,144,49.6,144.3,49.1,144.3z M111,144.3
			c-0.6,0-1.1-0.3-1.3-0.8c-0.4-0.7-0.1-1.6,0.7-2l0.4-0.2c0.7-0.4,1.6-0.1,2,0.7c0.4,0.7,0.1,1.6-0.7,2l-0.5,0.2
			C111.4,144.2,111.2,144.3,111,144.3z M43.4,141.2c-0.3,0-0.5-0.1-0.8-0.2l-0.4-0.3c-0.7-0.4-0.9-1.4-0.5-2.1
			c0.4-0.7,1.4-0.9,2.1-0.5l0.4,0.2c0.7,0.4,0.9,1.3,0.5,2.1C44.4,140.9,43.9,141.2,43.4,141.2z M116.7,141.1c-0.5,0-1-0.3-1.3-0.7
			c-0.4-0.7-0.2-1.6,0.5-2.1l0.4-0.3c0.7-0.4,1.6-0.2,2.1,0.5c0.4,0.7,0.2,1.6-0.5,2.1l-0.4,0.3
			C117.2,141.1,116.9,141.1,116.7,141.1z M38.1,137.6c-0.3,0-0.6-0.1-0.9-0.3l-0.4-0.3c-0.7-0.5-0.8-1.4-0.3-2.1
			c0.5-0.7,1.4-0.8,2.1-0.3l0.4,0.3c0.7,0.5,0.8,1.4,0.3,2.1C39,137.4,38.5,137.6,38.1,137.6z M122,137.5c-0.5,0-0.9-0.2-1.2-0.6
			c-0.5-0.7-0.4-1.6,0.3-2.1l0.4-0.3c0.7-0.5,1.6-0.4,2.1,0.3c0.5,0.7,0.4,1.6-0.3,2.1l-0.4,0.3C122.6,137.4,122.3,137.5,122,137.5z
			 M33.1,133.4c-0.4,0-0.7-0.1-1-0.4l-0.4-0.3c-0.6-0.6-0.7-1.5-0.1-2.1c0.6-0.6,1.5-0.7,2.1-0.1l0.4,0.3c0.6,0.6,0.7,1.5,0.1,2.1
			C33.9,133.3,33.5,133.4,33.1,133.4z M127,133.4c-0.4,0-0.8-0.2-1.1-0.5c-0.6-0.6-0.5-1.6,0.1-2.1l0.4-0.3c0.6-0.6,1.6-0.5,2.1,0.1
			c0.6,0.6,0.5,1.6-0.1,2.1L128,133C127.7,133.3,127.3,133.4,127,133.4z M28.5,128.9c-0.4,0-0.8-0.2-1.1-0.5L27,128
			c-0.6-0.6-0.5-1.6,0.1-2.1c0.6-0.5,1.6-0.5,2.1,0.1l0.3,0.4c0.6,0.6,0.5,1.6-0.1,2.1C29.2,128.8,28.9,128.9,28.5,128.9z
			 M131.6,128.8c-0.4,0-0.7-0.1-1-0.4c-0.6-0.6-0.6-1.5-0.1-2.1l0.3-0.4c0.6-0.6,1.5-0.7,2.1-0.1c0.6,0.6,0.7,1.5,0.1,2.1l-0.3,0.4
			C132.4,128.7,132,128.8,131.6,128.8z M24.3,123.9c-0.5,0-0.9-0.2-1.2-0.6l-0.3-0.4c-0.5-0.7-0.4-1.6,0.3-2.1
			c0.7-0.5,1.6-0.4,2.1,0.3l0.3,0.4c0.5,0.7,0.4,1.6-0.3,2.1C25,123.8,24.7,123.9,24.3,123.9z M135.7,123.9c-0.3,0-0.6-0.1-0.9-0.3
			c-0.7-0.5-0.8-1.4-0.3-2.1l0.3-0.4c0.5-0.7,1.4-0.8,2.1-0.3c0.7,0.5,0.8,1.4,0.3,2.1l-0.3,0.4
			C136.6,123.7,136.2,123.9,135.7,123.9z M20.7,118.6c-0.5,0-1-0.2-1.3-0.7l-0.3-0.4c-0.4-0.7-0.2-1.6,0.5-2.1
			c0.7-0.4,1.6-0.2,2.1,0.5l0.3,0.4c0.4,0.7,0.2,1.6-0.5,2.1C21.2,118.6,20.9,118.6,20.7,118.6z M139.4,118.6
			c-0.3,0-0.5-0.1-0.8-0.2c-0.7-0.4-0.9-1.4-0.5-2.1l0.3-0.4c0.4-0.7,1.4-0.9,2.1-0.5c0.7,0.4,0.9,1.4,0.5,2.1l-0.3,0.4
			C140.4,118.3,139.9,118.6,139.4,118.6z M17.5,113c-0.5,0-1.1-0.3-1.3-0.8l-0.2-0.4c-0.4-0.7-0.1-1.6,0.7-2c0.7-0.4,1.6-0.1,2,0.7
			l0.2,0.4c0.4,0.7,0.1,1.6-0.7,2C17.9,113,17.7,113,17.5,113z M142.6,112.9c-0.2,0-0.5-0.1-0.7-0.2c-0.7-0.4-1-1.3-0.7-2l0.2-0.4
			c0.4-0.7,1.3-1,2-0.7c0.7,0.4,1,1.3,0.7,2l-0.2,0.4C143.6,112.6,143.1,112.9,142.6,112.9z M14.8,107.1c-0.6,0-1.2-0.4-1.4-1
			l-0.2-0.5c-0.3-0.8,0.1-1.6,0.9-1.9c0.8-0.3,1.6,0.1,1.9,0.9l0.2,0.5c0.3,0.8-0.1,1.6-0.8,1.9C15.2,107.1,15,107.1,14.8,107.1z
			 M145.2,107c-0.2,0-0.4,0-0.5-0.1c-0.8-0.3-1.2-1.2-0.8-1.9l0.2-0.5c0.3-0.8,1.2-1.2,1.9-0.9c0.8,0.3,1.2,1.2,0.9,1.9l-0.2,0.5
			C146.4,106.7,145.8,107,145.2,107z M12.7,101c-0.7,0-1.2-0.4-1.4-1.1l-0.1-0.5c-0.2-0.8,0.2-1.6,1-1.8c0.8-0.2,1.6,0.2,1.8,1
			l0.1,0.5c0.2,0.8-0.2,1.6-1,1.9C13,101,12.9,101,12.7,101z M147.3,100.9c-0.1,0-0.3,0-0.4-0.1c-0.8-0.2-1.3-1.1-1-1.9l0.1-0.3
			l1.5,0.2l1.4,0.4l-0.1,0.5C148.5,100.5,147.9,100.9,147.3,100.9z M11.2,94.7c-0.7,0-1.3-0.5-1.5-1.2L9.7,93
			c-0.1-0.8,0.4-1.6,1.2-1.7c0.8-0.2,1.6,0.4,1.7,1.2l0.1,0.5c0.2,0.8-0.4,1.6-1.2,1.8C11.4,94.7,11.3,94.7,11.2,94.7z M148.8,94.6
			c-0.1,0-0.2,0-0.3,0c-0.8-0.2-1.3-0.9-1.2-1.8l0.1-0.5c0.1-0.8,0.9-1.3,1.7-1.2c0.8,0.1,1.4,0.9,1.2,1.7l-0.1,0.5
			C150.1,94.1,149.5,94.6,148.8,94.6z M10.3,88.3c-0.8,0-1.4-0.6-1.5-1.4l0-0.5c-0.1-0.8,0.5-1.6,1.4-1.6c0.8-0.1,1.6,0.5,1.6,1.4
			l0,0.5c0.1,0.8-0.5,1.6-1.4,1.6C10.4,88.3,10.4,88.3,10.3,88.3z M149.7,88.2c0,0-0.1,0-0.1,0c-0.8-0.1-1.4-0.8-1.4-1.6l0-0.5
			c0.1-0.8,0.8-1.4,1.6-1.4c0.8,0.1,1.4,0.8,1.4,1.6l0,0.5C151.1,87.7,150.4,88.2,149.7,88.2z M10,82c-0.8,0-1-0.8-1-1.6V80
			c0-0.8,0.7-1.6,1.5-1.6S12,79,12,79.9v0.5C12,81.2,10.8,82,10,82C10,82,10,82,10,82z M150,81.8c-0.8,0-1.5-0.7-1.5-1.5l0-0.8
			c0-0.8,0.7-1.5,1.5-1.5c0,0,0,0,0,0c0.8,0,1.5,0.7,1.5,1.5l0,0.8C151.5,81.1,150.8,81.8,150,81.8z M10.3,75.4c0,0-0.1,0-0.1,0
			c-0.8-0.1-1.4-0.8-1.4-1.6l0-0.5c0.1-0.8,0.8-1.4,1.6-1.4c0.8,0.1,1.4,0.8,1.4,1.6l0,0.5C11.7,74.8,11,75.4,10.3,75.4z M149.7,75
			c-0.8,0-1.4-0.6-1.5-1.4l0-0.5c-0.1-0.8,0.5-1.6,1.3-1.6c0.8-0.1,1.6,0.5,1.6,1.3l0,0.5c0.1,0.8-0.5,1.6-1.4,1.6
			C149.8,75,149.7,75,149.7,75z M11.1,69c-0.1,0-0.2,0-0.3,0C10,68.8,9.5,68,9.6,67.2l0.1-0.5c0.2-0.8,0.9-1.4,1.8-1.2
			c0.8,0.2,1.4,0.9,1.2,1.8l-0.1,0.5C12.5,68.5,11.8,69,11.1,69z M148.8,68.6c-0.7,0-1.3-0.5-1.5-1.2l-0.1-0.4l1.5-0.4l1.5-0.3
			l0.1,0.5c0.2,0.8-0.4,1.6-1.2,1.7C149,68.6,148.9,68.6,148.8,68.6z M12.6,62.7c-0.1,0-0.3,0-0.4-0.1c-0.8-0.2-1.3-1-1-1.8l0.1-0.5
			c0.2-0.8,1.1-1.3,1.9-1c0.8,0.2,1.3,1.1,1,1.9L14,61.6C13.8,62.3,13.2,62.7,12.6,62.7z M147.3,62.4c-0.7,0-1.3-0.4-1.4-1.1
			l-0.1-0.5c-0.2-0.8,0.2-1.6,1-1.9c0.8-0.2,1.6,0.2,1.9,1l0.1,0.5c0.2,0.8-0.2,1.6-1,1.8C147.6,62.3,147.5,62.4,147.3,62.4z
			 M14.6,56.6c-0.2,0-0.4,0-0.5-0.1c-0.8-0.3-1.2-1.2-0.9-1.9l0.2-0.5c0.3-0.8,1.2-1.1,1.9-0.8c0.8,0.3,1.2,1.2,0.8,1.9L16,55.6
			C15.8,56.2,15.2,56.6,14.6,56.6z M145.3,56.2c-0.6,0-1.2-0.4-1.4-1l-0.2-0.5c-0.3-0.8,0.1-1.6,0.8-1.9c0.8-0.3,1.6,0.1,1.9,0.8
			l0.2,0.5c0.3,0.8-0.1,1.6-0.8,1.9C145.7,56.2,145.5,56.2,145.3,56.2z M17.2,50.6c-0.2,0-0.4,0-0.7-0.2c-0.7-0.4-1-1.3-0.7-2L16,48
			c0.4-0.7,1.3-1,2-0.7c0.7,0.4,1,1.3,0.7,2l-0.2,0.4C18.2,50.3,17.7,50.6,17.2,50.6z M142.7,50.3c-0.5,0-1.1-0.3-1.3-0.8l-0.2-0.4
			c-0.4-0.7-0.1-1.6,0.7-2c0.7-0.4,1.6-0.1,2,0.7l0.2,0.5c0.4,0.7,0.1,1.6-0.7,2C143.1,50.3,142.9,50.3,142.7,50.3z M20.3,45
			c-0.3,0-0.5-0.1-0.8-0.2c-0.7-0.4-0.9-1.4-0.5-2.1l0.3-0.4c0.4-0.7,1.4-0.9,2.1-0.5c0.7,0.4,0.9,1.4,0.5,2.1l-0.3,0.4
			C21.3,44.7,20.8,45,20.3,45z M139.5,44.7c-0.5,0-1-0.2-1.3-0.7l-0.3-0.4c-0.4-0.7-0.2-1.6,0.5-2.1c0.7-0.4,1.6-0.2,2.1,0.5
			l0.3,0.4c0.4,0.7,0.2,1.6-0.5,2.1C140.1,44.6,139.8,44.7,139.5,44.7z M23.9,39.6c-0.3,0-0.6-0.1-0.9-0.3c-0.7-0.5-0.8-1.4-0.3-2.1
			l0.3-0.4c0.5-0.7,1.4-0.8,2.1-0.3c0.7,0.5,0.8,1.4,0.3,2.1L25.1,39C24.8,39.4,24.4,39.6,23.9,39.6z M135.9,39.3
			c-0.5,0-0.9-0.2-1.2-0.6l-0.3-0.4c-0.5-0.7-0.4-1.6,0.3-2.1c0.7-0.5,1.6-0.4,2.1,0.3l0.3,0.4c0.5,0.7,0.4,1.6-0.3,2.1
			C136.5,39.2,136.2,39.3,135.9,39.3z M28,34.6c-0.4,0-0.7-0.1-1-0.4c-0.6-0.6-0.7-1.5-0.1-2.1l0.3-0.4c0.6-0.6,1.5-0.7,2.1-0.1
			c0.6,0.6,0.7,1.5,0.1,2.1l-0.3,0.4C28.8,34.5,28.4,34.6,28,34.6z M131.7,34.4c-0.4,0-0.8-0.2-1.1-0.5l-0.3-0.3
			c-0.6-0.6-0.5-1.6,0.1-2.1c0.6-0.6,1.5-0.5,2.1,0.1l0.4,0.4c0.6,0.6,0.5,1.6-0.1,2.1C132.5,34.2,132.1,34.4,131.7,34.4z M32.5,30
			c-0.4,0-0.8-0.2-1.1-0.5c-0.6-0.6-0.5-1.6,0.1-2.1l0.4-0.3c0.6-0.6,1.6-0.5,2.1,0.1c0.6,0.6,0.5,1.6-0.1,2.1l-0.4,0.3
			C33.3,29.9,32.9,30,32.5,30z M127.2,29.8c-0.4,0-0.7-0.1-1-0.4l-0.4-0.3c-0.6-0.6-0.7-1.5-0.1-2.1c0.6-0.6,1.5-0.7,2.1-0.1
			l0.4,0.3c0.6,0.6,0.7,1.5,0.1,2.1C128,29.6,127.6,29.8,127.2,29.8z M37.5,25.9c-0.4,0-0.9-0.2-1.2-0.6c-0.5-0.7-0.4-1.6,0.3-2.1
			l0.4-0.3c0.7-0.5,1.6-0.4,2.1,0.3c0.5,0.7,0.4,1.6-0.3,2.1l-0.4,0.3C38.1,25.8,37.8,25.9,37.5,25.9z M122.2,25.7
			c-0.3,0-0.6-0.1-0.9-0.3l-0.4-0.3c-0.7-0.5-0.8-1.4-0.3-2.1c0.5-0.7,1.4-0.8,2.1-0.3l0.4,0.3c0.7,0.5,0.8,1.4,0.3,2.1
			C123.1,25.5,122.7,25.7,122.2,25.7z M42.8,22.2c-0.5,0-1-0.2-1.3-0.7c-0.4-0.7-0.2-1.6,0.5-2.1l0.4-0.3c0.7-0.4,1.6-0.2,2.1,0.5
			c0.4,0.7,0.2,1.6-0.5,2.1L43.6,22C43.4,22.1,43.1,22.2,42.8,22.2z M116.9,22c-0.3,0-0.5-0.1-0.8-0.2l-0.4-0.3
			c-0.7-0.4-0.9-1.4-0.5-2.1c0.4-0.7,1.4-0.9,2.1-0.5l0.4,0.3c0.7,0.4,0.9,1.4,0.5,2.1C117.9,21.7,117.4,22,116.9,22z M48.4,19
			c-0.5,0-1.1-0.3-1.3-0.8c-0.4-0.7-0.1-1.6,0.7-2l0.5-0.2c0.7-0.4,1.6-0.1,2,0.7c0.4,0.7,0.1,1.6-0.7,2l-0.4,0.2
			C48.9,19,48.7,19,48.4,19z M111.2,18.8c-0.2,0-0.5-0.1-0.7-0.2l-0.4-0.2c-0.7-0.4-1.1-1.2-0.7-2c0.4-0.7,1.2-1.1,2-0.7l0.5,0.2
			c0.7,0.4,1,1.3,0.7,2C112.3,18.5,111.8,18.8,111.2,18.8z M54.3,16.4c-0.6,0-1.2-0.4-1.4-1c-0.3-0.8,0.1-1.6,0.8-1.9l0.5-0.2
			c0.8-0.3,1.6,0.1,1.9,0.9c0.3,0.8-0.1,1.6-0.9,1.9l-0.5,0.2C54.7,16.3,54.5,16.4,54.3,16.4z M105.3,16.2c-0.2,0-0.4,0-0.5-0.1
			l-0.4-0.2c-0.8-0.3-1.2-1.2-0.9-1.9c0.3-0.8,1.2-1.2,1.9-0.9l0.5,0.2c0.8,0.3,1.2,1.2,0.8,1.9C106.5,15.9,105.9,16.2,105.3,16.2z
			 M60.4,14.3c-0.6,0-1.2-0.4-1.4-1.1c-0.2-0.8,0.2-1.6,1-1.9l0.5-0.1c0.8-0.2,1.6,0.2,1.9,1c0.2,0.8-0.2,1.6-1,1.9l-0.5,0.1
			C60.7,14.2,60.6,14.3,60.4,14.3z M99.2,14.2c-0.1,0-0.3,0-0.4-0.1L98.3,14c-0.8-0.2-1.3-1.1-1-1.8c0.2-0.8,1-1.3,1.8-1l0.5,0.1
			c0.8,0.2,1.3,1.1,1,1.9C100.5,13.7,99.9,14.2,99.2,14.2z M66.7,12.8c-0.7,0-1.3-0.5-1.5-1.2c-0.2-0.8,0.4-1.6,1.2-1.8L67,9.7
			c0.8-0.1,1.6,0.4,1.7,1.2c0.1,0.8-0.4,1.6-1.2,1.7L67,12.7C66.9,12.7,66.8,12.8,66.7,12.8z M92.9,12.7c-0.1,0-0.2,0-0.3,0
			l-0.5-0.1c-0.8-0.1-1.4-0.9-1.2-1.7c0.1-0.8,0.9-1.4,1.7-1.2l0.5,0.1c0.8,0.2,1.3,0.9,1.2,1.8C94.3,12.2,93.6,12.7,92.9,12.7z
			 M73.1,11.8c-0.8,0-1.4-0.6-1.5-1.4c-0.1-0.8,0.5-1.6,1.4-1.6l0.5,0c0.8-0.1,1.6,0.5,1.6,1.4c0.1,0.8-0.5,1.6-1.4,1.6l-0.5,0
			C73.2,11.8,73.2,11.8,73.1,11.8z M86.5,11.8c0,0-0.1,0-0.1,0l-0.5,0c-0.8-0.1-1.4-0.8-1.4-1.6c0.1-0.8,0.8-1.5,1.6-1.4l0.5,0
			c0.8,0.1,1.4,0.8,1.4,1.6C87.9,11.2,87.3,11.8,86.5,11.8z M80.1,11.5c0,0-0.2,0.2-0.2,0.2L79.6,12c0,0,0,0,0,0
			c-0.8,0-1.5-0.9-1.5-1.7c0-0.8,0.7-1.6,1.5-1.6L80,8.6c0.8,0,1.5,0.6,1.5,1.5C81.5,10.9,80.9,11.5,80.1,11.5z"/>
	</g>
	<g>
		<path fill="#FFFFFF" d="M80,156c-41.9,0-76-34.1-76-76S38.1,4,80,4s76,34.1,76,76S121.9,156,80,156z M80,6C39.2,6,6,39.2,6,80
			s33.2,74,74,74s74-33.2,74-74S120.8,6,80,6z"/>
	</g>
</g>
</svg>
