<?xml version="1.0" encoding="utf-8"?>
<!-- Generator: Adobe Illustrator 18.0.0, SVG Export Plug-In . SVG Version: 6.00 Build 0)  -->
<!DOCTYPE svg PUBLIC "-//W3C//DTD SVG 1.1//EN" "http://www.w3.org/Graphics/SVG/1.1/DTD/svg11.dtd">
<svg version="1.1" id="Layer_1" xmlns="http://www.w3.org/2000/svg" xmlns:xlink="http://www.w3.org/1999/xlink" x="0px" y="0px"
	 viewBox="0 0 301 301" enable-background="new 0 0 301 301" xml:space="preserve">
<path fill="#00D0CB" d="M240.5,88.3c-0.6-2.4-0.4-5-0.6-7.4c-0.2-2.8-0.9-5.5-1.5-8.2c-0.3-2.2-0.9-4.3-1.6-6.3
	c-1.2-5.4-3.6-10.4-5.7-15.4c-0.6-1.5-1.5-2.8-2.3-4.2c-6-10.9-14.5-20.3-24.9-27.2c-2-1.2-4-2.3-6-3.5c-1.6-0.8-3.1-1.8-4.8-2.3
	c-1.1-0.4-2-1-3.1-1.4c-5.8-2-11.6-4.4-17.8-5c-2.6-0.8-5.2-1.1-7.9-1.4c-1.6-0.1-3.2-0.6-4.9-0.6c-3.7-0.1-7.4-0.2-11.1-0.2
	c-1.9,0.1-3.7,0-5.6,0.1c-1.2,0-2.3,0.4-3.5,0.4c-2.6,0.1-5.2,0.4-7.8,0.9c-2.7,0.5-5.5,1.1-8.2,1.8c-7.9,2.3-15.6,5.5-22.6,9.8
	c-11.5,7-21.1,17-27.9,28.6C68,55,64.6,64,62.6,73.3c-0.9,4.2-1.4,8.5-1.9,12.8c-0.3,3.3-0.1,6.5-0.2,9.8c0,3,0,6.1,0.5,9
	c0.1,3.1,1.1,6.1,1.3,9.3c0.1,0.9,0.4,1.8,0.6,2.7c1.1,4.7,2.3,9.3,4,13.8c0.7,2.4,1.5,4.7,2.6,6.9c2.8,6.8,6.5,13.3,10.2,19.6
	c4.7,8,10,15.6,14,24c1,2,1.6,4.2,2.5,6.2c1,3.1,2,6.1,2.2,9.3c0.6,4.4,0.8,8.8,1,13.3c0,1.1,0.4,2.2,0.6,3.3
	c0.2,2.1,0.9,4.2,1.6,6.2c0.8,2.5,2.3,4.7,4,6.7c2,1.8,4.2,3.6,7,4c-0.5,1.7-0.9,3.5-0.5,5.3c0.3,2.1,1.7,3.8,3.3,5.1
	c-0.5,0.7-1.3,1.2-1.8,1.9c-1.7,2.1-1.9,5-1.3,7.5c0.5,1.8,1.7,3.2,3.1,4.3c-0.5,0.6-1.3,1-1.8,1.7c-2.8,3.6-2,9.4,1.8,11.9
	c-0.7,0.7-1.5,1.3-2.1,2.1c-2.5,3.6-1.6,9.4,2.4,11.6c2,1.2,4.4,1,6.6,1.1c0.4-0.1,0.4,0.4,0.6,0.6c2.1,4.3,5.5,8,9.7,10.5
	c3.5,2.1,7.5,3.3,11.5,3.8c5.2,0.6,10.6,0.3,15.7-1.2c4.3-1.2,8.4-3.4,11.8-6.3c2.5-2.1,4.5-4.6,6.3-7.3c2.1-0.3,4.4,0.2,6.4-0.8
	c1.9-0.8,3.3-2.4,4-4.3c0.6-1.5,0.6-3.1,0.4-4.7c-0.4-2.1-1.7-3.8-3.4-5.1c1.1-0.9,2.2-1.9,2.8-3.2c0.8-1.5,0.8-3.2,0.7-4.9
	c-0.3-2.2-1.6-4.2-3.5-5.5c1.3-1,2.4-2.3,3-3.8c0.6-1.4,0.6-2.9,0.4-4.4c-0.3-2.2-1.7-4.1-3.4-5.5c1-0.8,1.9-1.7,2.5-2.8
	c1.3-2.4,1.1-5.4,0.2-7.9c3.7-1,6.6-4,8.6-7.2c1.1-1.9,2.2-3.8,2.8-6c0.4-1.7,1.2-3.2,1.4-4.9c0.1-1.4,0.4-2.8,0.7-4.2
	c0.3-1.8,0.3-3.7,0.5-5.6c0.7-7.3,2.2-14.7,5.3-21.4c6.2-13.9,14.8-26.5,21.8-40.1c1.5-2.9,2.8-5.9,4.1-8.9
	c1.8-4.3,3.1-8.8,4.5-13.2c0.4-2.5,1.2-4.9,1.5-7.5c0.6-2.9,0.9-5.8,1.4-8.8C240.7,97.7,240.6,93,240.5,88.3z M145.2,234
	c1.1-0.6,2.3-0.8,3.5-0.7c6.6,0,28.2,0,34.7,0c-0.1,2.2-1,4.5-3,5.6c-1.4,0.8-3.1,0.5-4.7,0.6c-6.7-0.1-28.4,0.1-35-0.1
	C141.5,237.1,143.1,235,145.2,234z M144.2,248c1.4-1,3.1-1.4,4.7-1.3c6.5,0,28,0,34.5,0c0,2.1-1,4.3-2.8,5.4
	c-0.8,0.6-1.9,0.7-2.9,0.7c-7.4,0-29.7,0.1-37.1,0C141.4,250.9,142.6,249.1,144.2,248z M183.5,260c-0.1,2-0.9,4.2-2.7,5.4
	c-1.2,0.8-2.7,0.8-4.1,0.8c-6.9,0-28.9,0-35.8,0c0.7-3.4,4.1-6.2,7.6-6.2C155.1,260,176.8,260,183.5,260z M180.8,278.8
	c-1.4,0.9-3,0.8-4.6,0.8c-6.8,0-28.6,0-35.4-0.1c0.4-1.9,1.7-3.5,3.2-4.7c1.6-1.2,3.6-1.5,5.6-1.5c4.9,0,24.9,0,29.8,0
	c1.4,0.1,2.7-0.1,4.1,0.1C183.3,275.5,182.6,277.7,180.8,278.8z M235,102.4c-0.6,3-0.8,6.1-1.5,9.1c-0.5,2.8-1.3,5.6-2.2,8.3
	c-1.2,4.8-3.2,9.4-5.3,13.9c-1.4,3.2-3.2,6.3-4.8,9.4c-2,3.8-4.4,7.4-6.4,11.2c-1.7,3.2-3.6,6.3-5.3,9.5c-2.5,4.6-5.2,9-7.2,13.8
	c-0.4,1.1-1,2.2-1.5,3.4c-0.9,2.1-1.5,4.3-2.2,6.5c-0.7,2-0.6,4.1-1.2,6.1c-0.4,3.6-1,7.2-1.2,10.9c0,1.7-0.5,3.3-0.8,5
	c-0.8,4.2-2,8.5-4.8,11.8c-2.6,3.2-6.7,4.8-10.8,4.7c-3.8-0.1-10.5,0-14.3,0c-7.1-6.2-12.3-15.1-12.4-24.7c0-14.9,0.1-29.8,0.1-44.7
	h0.1V152v-16.8v-29.8h-8.9v26.8v24.5v13.2h0c0,9.9,0,19.7,0,29.6c0.3,8.2-2.5,16.6-8.3,22.6c-1.5,1.6-3.2,3-5,4.1
	c-2.2,0-7.5-0.2-9.7-0.3c-1.9-0.1-3.9,0.1-5.8-0.2c-2.5-0.4-5-1.6-6.6-3.6c-1.8-2.2-2.7-5-3.3-7.8c-0.6-2.2-0.6-4.5-1.1-6.7
	c-0.3-4.3-0.3-8.7-1-13c-0.4-4.3-1.9-8.3-3.5-12.3c-0.8-2.3-2-4.4-3.1-6.7c-1.3-2.8-3.1-5.4-4.6-8.2c-2.5-3.9-4.8-7.9-7.3-11.7
	c-2.3-3.9-4.7-7.7-6.7-11.8c-2.1-3.9-3.8-8-5.5-12.2c-1.5-3.7-2.5-7.7-3.8-11.5c-1.1-3-1.1-6.2-2-9.3c-0.6-2.9-0.8-5.8-1.3-8.7
	c-0.2-1.1-0.2-2.3-0.2-3.4c-0.1-4.2-0.3-8.5,0.3-12.7c0.3-2,0.3-4,0.7-6c0.7-3.7,1.2-7.5,2.5-11c3.1-10.5,8-20.5,14.9-29
	c2.2-3,5-5.5,7.5-8.2c6-5.7,12.9-10.5,20.5-13.8c5.6-2.7,11.6-4.4,17.6-5.8c1-0.2,2-0.5,3-0.6c2-0.2,4-0.7,6-0.7c3,0,5.8-1,8.8-1
	c2.3,0,4.6,0,7,0c1,0,2,0.5,3,0.5c1.6-0.1,3.2,0.2,4.7,0.4c10.4,1.2,20.6,3.9,30.1,8.4c3.5,1.9,7.1,3.8,10.3,6.2
	c3,2.3,6,4.6,8.7,7.3c3.5,3.4,6.5,7.3,9.3,11.3c2.5,3.5,4.6,7.3,6.3,11.3c1.6,3.5,3.2,7.1,4.2,10.9c1,3.5,1.8,7.1,2.7,10.6
	c0.1,1.5,0.2,3.1,0.5,4.6c0.5,2.6,0,5.3,0.6,7.8c0.1,0.4,0.1,0.8,0.1,1.2C235.3,94.5,235.3,98.5,235,102.4z M123.7,132.7l-4.3,8
	c9.9-0.3,19.9-3.4,30.1-3.4c10.2,0,20.2,3.1,30.1,3.4l-4.3-8l25.5-21.5l-5.3-2.7l4.2-18.1l-15.8,3.1l-3.1-7.7l-15.3,14.2l5.2-31.6
	l-10,5.4l-11.1-16.6l-11.1,16.6l-10-5.4l5.2,31.6l-15.3-14.2l-3.1,7.7l-15.8-3.1l4.2,18.1l-5.3,2.7L123.7,132.7z"/>
</svg>
