<?xml version="1.0" encoding="utf-8"?>
<!-- Generator: Adobe Illustrator 18.0.0, SVG Export Plug-In . SVG Version: 6.00 Build 0)  -->
<!DOCTYPE svg PUBLIC "-//W3C//DTD SVG 1.1//EN" "http://www.w3.org/Graphics/SVG/1.1/DTD/svg11.dtd">
<svg version="1.1" id="Layer_1" xmlns="http://www.w3.org/2000/svg" xmlns:xlink="http://www.w3.org/1999/xlink" x="0px" y="0px"
	 viewBox="0 0 301 301" enable-background="new 0 0 301 301" xml:space="preserve">
<g>
	<g>
		<path fill="none" stroke="#EEF7BC" stroke-width="6" stroke-linejoin="round" stroke-miterlimit="10" d="M147.9,80.1l-99.7,56.9
			c-2.9,1.6-1.6,5.6,1.9,5.6h106.7h106.7c3.4,0,4.7-4,1.9-5.6l-99.7-56.9C160.2,77.1,153.3,77.1,147.9,80.1z"/>
		<circle fill="#EEF7BC" cx="156.7" cy="113.5" r="14.9"/>
		<path fill="#EEF7BC" d="M252.3,142.7H61.2v11.3c0,3.1,2.5,5.6,5.6,5.6h179.9c3.1,0,5.6-2.5,5.6-5.6V142.7z"/>
		<path fill="none" stroke="#EEF7BC" stroke-width="6" stroke-linejoin="round" stroke-miterlimit="10" d="M252.3,271v-11.7
			c0-2.9-2.3-5.2-5.2-5.2H66.4c-2.9,0-5.2,2.3-5.2,5.2V271"/>
		<rect x="76.6" y="155.9" fill="#EEF7BC" width="11.1" height="100.8"/>
		<rect x="101.4" y="155.9" fill="#EEF7BC" width="11.1" height="100.8"/>
		<rect x="126.3" y="155.9" fill="#EEF7BC" width="11.1" height="100.8"/>
		<rect x="151.1" y="155.9" fill="#EEF7BC" width="11.1" height="100.8"/>
		<rect x="176" y="155.9" fill="#EEF7BC" width="11.1" height="100.8"/>
		<rect x="200.9" y="155.9" fill="#EEF7BC" width="11.1" height="100.8"/>
		<rect x="225.7" y="155.9" fill="#EEF7BC" width="11.1" height="100.8"/>
		<path fill="none" stroke="#EEF7BC" stroke-width="6" stroke-linejoin="round" stroke-miterlimit="10" d="M260.6,293H52.8
			c-3.4,0-6.2-2.8-6.2-6.2v-11.4c0-3.4,2.8-6.2,6.2-6.2h207.8c3.4,0,6.2,2.8,6.2,6.2v11.4C266.9,290.2,264.1,293,260.6,293z"/>
	</g>
	<g>
		
			<rect x="11.7" y="32.9" transform="matrix(0.8594 -0.5113 0.5113 0.8594 -20.6976 42.7901)" fill="none" stroke="#EEF7BC" stroke-width="6" stroke-linejoin="round" stroke-miterlimit="10" width="111.6" height="52.3"/>
		
			<text transform="matrix(0.792 -0.6105 0.6105 0.792 46.9187 90.9409)" fill="#EEF7BC" font-family="'SignPainter-HouseScript'" font-size="43.487">Free!</text>
		<polygon fill="#EEF7BC" points="85.3,78.8 76.3,84.2 93.3,112.9 102.3,107.6 		"/>
	</g>
</g>
</svg>
