<?xml version="1.0" encoding="utf-8"?>
<!-- Generator: Adobe Illustrator 18.0.0, SVG Export Plug-In . SVG Version: 6.00 Build 0)  -->
<!DOCTYPE svg PUBLIC "-//W3C//DTD SVG 1.1//EN" "http://www.w3.org/Graphics/SVG/1.1/DTD/svg11.dtd">
<svg version="1.1" id="Layer_1" xmlns="http://www.w3.org/2000/svg" xmlns:xlink="http://www.w3.org/1999/xlink" x="0px" y="0px"
	 viewBox="0 0 301 301" enable-background="new 0 0 301 301" xml:space="preserve">
<g>
	<ellipse fill="#00706A" cx="67" cy="104.2" rx="6.4" ry="25.8"/>
	<path fill="#00706A" d="M246.9,244.1c-3.2,0-6.2,1-8.7,2.9V104.2c0-35.8-8.7-73.8-24.8-73.8h-146c-16.1,0-24.8,38-24.8,73.8
		s8.7,73.7,24.8,73.7h18.7v67.7c-1.9-1-4.1-1.5-6.4-1.5c-8.1,0-14.7,6.6-14.7,14.7c0,8.1,6.6,14.7,14.7,14.7c4.8,0,9-2.3,11.7-5.9
		h143.7c2.8,3.7,7.1,5.9,11.7,5.9c8.1,0,14.7-6.6,14.7-14.7C261.6,250.7,255,244.1,246.9,244.1z M54.9,153.3
		c-4-13.1-6.2-30.5-6.2-49.1s2.2-36.1,6.2-49.1c4.2-13.7,9.2-18.6,12.5-18.6S75.8,41.3,80,55c3.7,11.9,5.8,27.4,6.2,44.2v10
		c-0.1,5.7-0.5,11.3-1,16.6c-1.5,12.9-4.4,26.7-8.3,35.8c-3.1,6.9-6.3,9.9-8.8,10.3c-0.2,0-0.4,0.1-0.7,0.1
		C64.2,171.9,59.2,167,54.9,153.3z M92.2,115.5V111h1.3c1.1,0,2-0.9,2-2s-0.9-2-2-2h-1.2c0-1,0-1.9,0-2.9c0-1.6,0-3.2-0.1-4.9v-0.1
		h0c-0.6-25.6-5.5-51.4-14.4-62.7h50.6c-4.5,6.1-5.8,14.8-3.4,24.2c3.4,13.3,10.5,20.6,19.3,25.8c2.2-4.5,4.3-8.9,6.3-13.3
		c-5.2-3.3-8.9-6.8-10.5-13.1c-2.2-8.5,2.9-14.9,11.7-15.6c0.1,0,0.1,0,0.2,0c8.6-0.6,17.6,4.8,19.9,13.2c1.6,5.8-0.3,10-3.6,13.7
		c4.2,4,8.3,8,12.3,12c6.2-5.9,9.6-14.3,6.3-26.6c-2.3-8.2-7.3-15.2-13.6-20.3h40.3c3.3,0,8.3,4.9,12.5,18.6
		c4,13.1,6.2,30.5,6.2,49.1v2.9c-1.1,0-2,0.9-2,2s0.9,2,2,2v138.9h-140v-72V115.5z M71,258.8c0-4.8,3.9-8.7,8.7-8.7
		c3.2,0,6,1.8,7.5,4.4c0.4,0.6,0.6,1.3,0.8,2c0,0.1,0,0.1,0,0.2c0.1,0.3,0.1,0.6,0.2,0.9c0,0.1,0,0.2,0,0.2c0,0.3,0.1,0.7,0.1,1
		c0,0,0,0,0,0c0,0.4,0,0.7-0.1,1c0,0.1,0,0.1,0,0.2c0,0.3-0.1,0.6-0.2,0.9c0,0.1,0,0.1,0,0.2c-0.2,0.7-0.5,1.4-0.8,2
		c-1.5,2.6-4.3,4.4-7.5,4.4C74.9,267.4,71,263.5,71,258.8z M94.1,261.6c0-0.1,0-0.2,0-0.2c0.1-0.4,0.1-0.8,0.2-1.1
		c0-0.5,0.1-0.9,0.1-1.4c0,0,0,0,0,0c0,0,0,0,0,0s0,0,0,0c0-0.5,0-1-0.1-1.4c0-0.3-0.1-0.7-0.1-1c0-0.1,0-0.3-0.1-0.4h137.4h7.2
		c1.6,0,2.8,1.3,2.8,2.8c0,1.2-0.7,2.2-1.7,2.6c-0.3,0.1-0.7,0.2-1.1,0.2h-7.2H94.1z M246.9,267.4c-1.4,0-2.7-0.3-3.9-0.9
		c0,0,0,0,0,0c0.3-0.2,0.6-0.4,0.9-0.6c0.1-0.1,0.2-0.1,0.2-0.2c0.2-0.2,0.4-0.3,0.6-0.5c0.1-0.1,0.1-0.1,0.2-0.2
		c0.2-0.2,0.5-0.5,0.7-0.8c0,0,0.1-0.1,0.1-0.2c0.2-0.2,0.3-0.5,0.5-0.7c0.1-0.1,0.1-0.2,0.2-0.3c0.1-0.3,0.3-0.5,0.4-0.8
		c0-0.1,0.1-0.1,0.1-0.2c0.1-0.3,0.3-0.7,0.4-1c0-0.1,0-0.2,0.1-0.3c0.1-0.3,0.1-0.5,0.2-0.8c0-0.1,0-0.2,0-0.3
		c0-0.4,0.1-0.7,0.1-1.1c0,0,0,0,0,0c0,0,0,0,0,0c0,0,0,0,0,0c0-0.4,0-0.7-0.1-1.1c0-0.1,0-0.2,0-0.3c0-0.3-0.1-0.5-0.2-0.8
		c0-0.1,0-0.2-0.1-0.3c-0.1-0.3-0.2-0.7-0.4-1c0-0.1-0.1-0.1-0.1-0.2c-0.1-0.3-0.2-0.5-0.4-0.8c-0.1-0.1-0.1-0.2-0.2-0.3
		c-0.2-0.2-0.3-0.5-0.5-0.7c0-0.1-0.1-0.1-0.1-0.2c-0.2-0.3-0.4-0.5-0.7-0.8c-0.1-0.1-0.1-0.1-0.2-0.2c-0.2-0.2-0.4-0.3-0.6-0.5
		c-0.1-0.1-0.2-0.1-0.3-0.2c-0.3-0.2-0.6-0.4-0.8-0.5c0,0,0,0,0,0c1.2-0.6,2.5-0.9,3.9-0.9c4.8,0,8.7,3.9,8.7,8.7
		S251.7,267.4,246.9,267.4z"/>
	<path fill="#00706A" d="M156.7,184.7c0.1,0,0.1,0,0.2,0c13.3-0.9,20.4-11.2,20.7-22.1c0.1-4.1-0.7-6.9-2-9.6c3.1,0,6.1-0.1,9.2-0.1
		c0,9.1-0.4,18.2-1.1,27.2c4.7-0.3,9.3-0.7,14-1c1-13.4,1.2-27,0.7-40.6c-10.2,0.2-20.5,0.3-30.7,0.5c-1.8,3.5-3.6,6.9-5.4,10.4
		c1.8,2.7,3.1,5.8,3,9.5c-0.1,5.3-2.9,9.1-7.4,9.4c-0.1,0-0.1,0-0.2,0c-4.4,0.3-7-2.8-6.8-8.3c0.1-5.2,2.6-10.1,6.6-15.2
		c-3.8-2.9-7.7-5.9-11.6-8.8c-5.6,6.8-9.2,14.5-9.4,25.3C136,176,143.1,185.6,156.7,184.7z"/>
	<path fill="#00706A" d="M192.5,220.4c0.8-4,1.5-7.9,2.1-11.9c-0.8-5.7-1.7-11.4-2.7-17.1c-4.5,1.4-9,2.7-13.5,4.1
		c0.4,3.3,0.8,6.6,1.1,9.9c-15.4,1.1-30.9,2.1-46.3,3.2c-0.9,5.4-1.9,10.8-3.1,16.1C150.9,223.3,171.7,221.8,192.5,220.4z"/>
	<path fill="#00706A" d="M207.9,111h4c1.1,0,2-0.9,2-2s-0.9-2-2-2h-4c-1.1,0-2,0.9-2,2S206.8,111,207.9,111z"/>
	<path fill="#00706A" d="M152.3,111h4c1.1,0,2-0.9,2-2s-0.9-2-2-2h-4c-1.1,0-2,0.9-2,2S151.2,111,152.3,111z"/>
	<path fill="#00706A" d="M102.4,111h4c1.1,0,2-0.9,2-2s-0.9-2-2-2h-4c-1.1,0-2,0.9-2,2S101.3,111,102.4,111z"/>
	<path fill="#00706A" d="M114.9,111h4c1.1,0,2-0.9,2-2s-0.9-2-2-2h-4c-1.1,0-2,0.9-2,2S113.8,111,114.9,111z"/>
	<path fill="#00706A" d="M195.6,111h4c1.1,0,2-0.9,2-2s-0.9-2-2-2h-4c-1.1,0-2,0.9-2,2S194.5,111,195.6,111z"/>
	<path fill="#00706A" d="M220.2,111h4c1.1,0,2-0.9,2-2s-0.9-2-2-2h-4c-1.1,0-2,0.9-2,2S219.1,111,220.2,111z"/>
	<path fill="#00706A" d="M139.8,111h4c1.1,0,2-0.9,2-2s-0.9-2-2-2h-4c-1.1,0-2,0.9-2,2S138.7,111,139.8,111z"/>
	<path fill="#00706A" d="M183.3,111h4c1.1,0,2-0.9,2-2s-0.9-2-2-2h-4c-1.1,0-2,0.9-2,2S182.2,111,183.3,111z"/>
	<path fill="#00706A" d="M127.4,111h4c1.1,0,2-0.9,2-2s-0.9-2-2-2h-4c-1.1,0-2,0.9-2,2S126.3,111,127.4,111z"/>
	<path fill="#00706A" d="M170.3,111h4c1.1,0,2-0.9,2-2s-0.9-2-2-2h-4c-1.1,0-2,0.9-2,2S169.2,111,170.3,111z"/>
	<path fill="#00706A" d="M168.5,94.2c-4.7,0.4-9.5,0.7-14.2,1.1c1.5,9.5,2.7,19.1,3.4,28.6c4.8-0.4,9.5-0.7,14.3-1.1
		C171.2,113.3,170,103.7,168.5,94.2z"/>
</g>
</svg>
