<?xml version="1.0" encoding="utf-8"?>
<!-- Generator: Adobe Illustrator 18.0.0, SVG Export Plug-In . SVG Version: 6.00 Build 0)  -->
<!DOCTYPE svg PUBLIC "-//W3C//DTD SVG 1.1//EN" "http://www.w3.org/Graphics/SVG/1.1/DTD/svg11.dtd">
<svg version="1.1" id="Layer_1" xmlns="http://www.w3.org/2000/svg" xmlns:xlink="http://www.w3.org/1999/xlink" x="0px" y="0px"
	 viewBox="0 0 301 301" enable-background="new 0 0 301 301" xml:space="preserve">
<g>
	<text transform="matrix(1 0 0 1 88.9702 210.4167)"><tspan x="0" y="0" fill="#333333" font-family="'Gotham-Black'" font-size="18" letter-spacing="5">SMOKING</tspan><tspan x="8.3" y="23.2" fill="#333333" font-family="'Gotham-Black'" font-size="18" letter-spacing="5">NATION</tspan></text>
	<path stroke="#000000" stroke-width="2" stroke-miterlimit="10" d="M169.4,131.9c0,0.5-0.4,1-1,1l-49-5c-0.8-0.1-1.3-0.6-1.3-1.4
		c0-0.8,0.6-1.3,1.4-1.4l48.8-5c0.6,0,0.9,0.2,1.1,0.6l0.1,0.4V131.9L169.4,131.9z M146.9,92.5l0-0.9c0-0.4,0.3-0.7,0.7-0.7h0.4
		c0.4,0,0.7,0.3,0.7,0.7c0,23.8,25.7,4.7,25.7,24.3l0,0.6c0,0.4-0.3,0.7-0.7,0.7h-0.4c-0.4,0-0.7-0.3-0.7-0.7v-1.1
		C172.1,99.2,147.5,116.4,146.9,92.5z M172.5,121.4c0-0.4,0.3-0.7,0.7-0.7h0.4c0.4,0,0.7,0.3,0.7,0.7v10c0,0.4-0.3,0.7-0.7,0.7h-0.4
		c-0.4,0-0.7-0.3-0.7-0.7V121.4z M178,122.8c0-0.4,0.3-0.7,0.7-0.7h0.4c0.4,0,0.7,0.3,0.7,0.7v7.2c0,0.4-0.3,0.7-0.7,0.7h-0.4
		c-0.4,0-0.7-0.3-0.7-0.7V122.8z M179.8,115.8l0,1.1l0,1.1c0,0.4-0.3,0.7-0.7,0.7h-0.4c-0.4,0-0.7-0.3-0.7-0.7l0-1.1l0-1.1
		c-0.1-13.4-1.8-16.8-11.6-16.8c-4.5,0-3.5-4.6-4-7.5c-0.4-2.8-1.8-5.9-11-6l-1,0H150c-0.4,0-0.7-0.3-0.7-0.7v-0.4
		c0-0.4,0.3-0.7,0.7-0.7h0.8l0.6,0c8.4,0.1,12.7,2.1,13,10.1c0.1,1.5-0.2,3.3,2,3.3C177.8,97.2,179.7,102.2,179.8,115.8z"/>
	<circle fill="none" stroke="#000000" stroke-width="6" stroke-miterlimit="10" cx="150.5" cy="116.3" r="50.1"/>
	<path fill="none" stroke="#000000" stroke-width="3" stroke-miterlimit="10" d="M222.6,25.2H78.4c-8.7,0-15.8,7.1-15.8,15.8v219
		c0,8.7,7.1,15.8,15.8,15.8h144.2c8.7,0,15.8-7.1,15.8-15.8V41C238.4,32.3,231.4,25.2,222.6,25.2z"/>
	<path fill="none" stroke="#000000" stroke-width="6" stroke-miterlimit="10" d="M224.3,15.6H76.7c-12.7,0-23,10.3-23,23v223.7
		c0,12.7,10.3,23,23,23h147.5c12.7,0,23-10.3,23-23V38.7C247.3,25.9,237,15.6,224.3,15.6z"/>
</g>
</svg>
