<?xml version="1.0" encoding="utf-8"?>
<!-- Generator: Adobe Illustrator 18.0.0, SVG Export Plug-In . SVG Version: 6.00 Build 0)  -->
<!DOCTYPE svg PUBLIC "-//W3C//DTD SVG 1.1//EN" "http://www.w3.org/Graphics/SVG/1.1/DTD/svg11.dtd">
<svg version="1.1" id="Layer_1" xmlns="http://www.w3.org/2000/svg" xmlns:xlink="http://www.w3.org/1999/xlink" x="0px" y="0px"
	 viewBox="0 0 301 301" enable-background="new 0 0 301 301" xml:space="preserve">
<g>
	<path fill="#00706A" d="M290.8,108.8l6.8-57.5L183.1,38.4l-6.9,57.5l51.7,5.8l-5.3,49.4h-90.3c-3,0-5.9,0.3-8.7,0.9
		c0.5-3.4,0.8-6.9,0.8-10.4c0-31.8-21.1-57.6-47-57.6H48.1c-24.6,0-44.7,25.8-44.7,57.6c0,4.7,0.4,9.4,1.3,13.9
		c2.2,11.4,7.1,21.7,14,29.5c-8.9,4.2-13.5,9.3-13.5,15v37.6c0,7.4,7.8,13.7,22.5,18.4c13.5,4.3,31.5,6.7,50.5,6.7
		c19,0,37-2.4,50.5-6.7c14.7-4.7,22.5-11.1,22.5-18.4v-3.2h84.7c22.9,0,41.6-18.7,41.6-41.6c0-22.9-18.7-41.6-41.6-41.6h-1.9
		l5.2-48.1L290.8,108.8z M187.9,44.5l103.6,11.7l-5.2,45.7L182.8,90.1L187.9,44.5z M176.4,156.5c2.7,3.7,11.4,17.2,11.4,34.6
		c0,9.8-2.7,19-5.6,26h-31v-17.2c0-0.4,0-0.9-0.1-1.3c0-0.1,0-0.1,0-0.2c0-0.3-0.1-0.6-0.2-1c0-0.2-0.1-0.4-0.2-0.6
		c-0.1-0.2-0.1-0.4-0.2-0.6c-1.6-4.3-6.1-8.2-13.2-11.5c-0.1,0-0.2-0.1-0.3-0.1c-0.5-0.2-1.1-0.5-1.7-0.7c-0.2-0.1-0.4-0.2-0.6-0.3
		c-0.1,0-0.1,0-0.2-0.1c-0.4-0.2-0.8-0.3-1.3-0.5c-0.3-0.1-0.6-0.2-0.9-0.3c-0.8-0.3-1.6-0.6-2.4-0.8c-0.2-0.1-0.4-0.1-0.7-0.2
		c-0.2-0.1-0.4-0.1-0.6-0.2c-0.4-0.1-0.8-0.2-1.2-0.4c0,0,0,0-0.1,0c-7.8-2.4-17-4.1-27-5.2c0,0,0-0.1,0.1-0.1
		c0.3-0.6,0.7-1.2,1-1.8c0.2-0.4,0.5-0.8,0.7-1.2c0.1-0.2,0.3-0.4,0.4-0.6c0.3-0.4,0.6-0.9,1-1.3c0.1-0.1,0.1-0.2,0.2-0.3
		c4.4-5.6,10.3-9.9,17.2-12.2l0.4-0.1c3.5-1.1,7.1-1.7,10.9-1.7H176.4z M127.3,213L39.7,184c2.2-0.5,4.4-0.9,6.7-1.3
		c2.6-0.4,5.4-0.8,8.3-1.1l0.5-0.1c0.3,0,0.6-0.1,1-0.1c0,0,0.1,0,0.1,0c1.7-0.2,3.5-0.4,5.3-0.5c0.5,0,0.9-0.1,1.4-0.1
		c1.5-0.1,3.1-0.2,4.6-0.3c0,0,0,0,0,0l0,0c0.2,0,0.3,0,0.5,0c3.1-0.1,6.1-0.2,9.1-0.2c0.3,0,0.7,0,1,0c1.5,0,3.1,0,4.6,0.1
		c0.2,0,0.4,0,0.6,0c4.7,0.1,9.3,0.4,13.8,0.8v0c0.4,0,0.8,0.1,1.3,0.1c1.1,0.1,2.1,0.2,3.1,0.3l0,0c0.2,0,0.3,0,0.5,0.1l0,0
		c0.9,0.1,1.8,0.2,2.8,0.3l0,0c0.3,0,0.6,0.1,1,0.1l0,0c0.8,0.1,1.7,0.2,2.5,0.4l0,0c1.5,0.2,2.9,0.5,4.3,0.7c0.1,0,0.1,0,0.2,0
		c0.7,0.1,1.4,0.3,2.1,0.4c0.4,0.1,0.7,0.1,1.1,0.2c0.4,0.1,0.9,0.2,1.3,0.3c2.6,0.6,5,1.2,7.2,1.8c0.1,0,0.2,0.1,0.3,0.1
		c0.6,0.2,1.2,0.4,1.8,0.5c0.2,0.1,0.4,0.1,0.6,0.2c0.5,0.1,0.9,0.3,1.3,0.4c0.3,0.1,0.6,0.2,0.9,0.3c0.3,0.1,0.5,0.2,0.8,0.3
		c9,3.3,14.2,7.2,15.3,10.7c0,0.1,0.1,0.2,0.1,0.3c0,0.1,0.1,0.3,0.1,0.4c0,0.3,0.1,0.5,0.1,0.8C145.7,204.5,138.9,209.3,127.3,213z
		 M118.9,141.6c0,4.1-0.4,8.2-1.1,12.1c-9.5,3.5-17.4,10.5-22.3,19.7c-0.1,0.1-0.1,0.2-0.2,0.4c-0.2,0.4-0.4,0.9-0.6,1.3
		c-0.1,0.1-0.1,0.2-0.2,0.3c-3.3-0.2-6.7-0.4-10.1-0.5c-0.1,0-0.3,0-0.4,0c-1,0-2,0-2.9-0.1c-0.3,0-0.5,0-0.8,0c-0.7,0-1.4,0-2.2,0
		c-0.2,0-0.3,0-0.5,0c-0.3,0-0.6,0-0.9,0c-0.9,0-1.8,0-2.7,0c-0.1,0-0.3,0-0.4,0c-9.3,0.2-18.3,0.9-26.6,2.2
		c-5.4-7.3-9.1-16.4-10.5-26.2c-0.4-3-0.7-6.2-0.7-9.3c0-28.7,18.6-52.1,41.5-52.1S118.9,112.8,118.9,141.6z M48.1,89.4h9.4
		c-15.9,9.2-27,29.1-27,52.1c0,3.4,0.2,6.7,0.7,10c0,0.5,1.1,12.8-6.7,14.4C17,167.4,11,156,10,154.1c-0.8-4.1-1.2-8.3-1.2-12.5
		C8.9,112.8,26.5,89.4,48.1,89.4z M22.7,189.1L22.7,189.1l1.7-0.6c1.7-0.7,3.6-1.3,5.5-1.9l87.7,29.1c-10.8,2.4-24.2,3.9-39.5,3.9
		c-0.1,0-0.5,0-1,0c-39.2-0.2-66.6-10.5-66.6-19.6C10.6,196.2,15,192.4,22.7,189.1z M145.7,237.5c0,9.3-27.7,19.6-67.5,19.6
		c-18.1,0-22-9.3-22-17.1c0-5.9,2.8-10,8.6-12.5c5-2.2,10.7-2.4,12.5-2.5h0.9c19,0,37-2.4,50.5-6.7c7.5-2.4,13.2-5.2,17-8.4v24.4
		V237.5z M271.9,192.5c-5.7,14.4-19.8,24.6-36.1,24.6h-47.7c2.8-7.2,5.2-16.3,5.2-26c0-15.7-6.3-28.3-10.3-34.6h52.8
		C255.7,156.5,271.9,172.7,271.9,192.5z"/>
	<path fill="#00706A" d="M215.4,76.1c0.4,0,0.7-0.1,0.8-0.4c0.2-0.2,0.2-0.5,0.1-0.9c-0.4-1.1-1.4-2.5-4.1-2.3c-0.7,0-1.4,0.1-2,0.2
		c1.7-3.2,3.5-6.3,5-8.8c0.7-0.1,1.5-0.3,2.2-0.4c2-0.4,4-0.8,6.2-0.8h0.1c0.5,0,0.8-0.2,0.9-0.4c0.1-0.2,0.2-0.5,0-0.9
		c-0.7-1.6-2-2.4-3.9-2.4c-1,0-2.4,0.2-4,0.5c-1.9,0.3-4,0.7-5.9,0.7c-0.2,0-0.4,0-0.6,0c-0.1,0-0.6,0-0.8,0.3
		c-0.2,0.2-0.2,0.5-0.1,0.8c0.3,1,0.8,1.7,1.5,2.2c-3.6,6-7.9,14.2-9.2,18c-0.8,2.5-0.6,4.2,0.5,5.2c0.2,0.2,0.4,0.3,0.7,0.3
		c0.2,0,0.6-0.1,0.8-0.6c1-2.5,2.4-5.3,4.3-9.1c1.6-0.4,5.1-1.2,7.4-1.2L215.4,76.1z"/>
	<path fill="#00706A" d="M261.3,78.7c-0.3-0.7-1.1-0.7-1.5-0.1c-1.1,1.8-4.2,5.9-7.9,5.9l-0.2,0c-0.7,0-1.2-0.3-1.6-0.9
		c-0.7-1-0.7-2.7-0.2-4.7c2.7,1.8,5.7,1.2,8.1-1.8c2-2.4,2.2-5.2,1.3-6.4c-0.7-0.9-1.5-1.6-2.7-2.3c-0.4-0.3-1-0.4-1.5-0.4
		c-2.3,0-5.9,2.2-8.3,7.1c-0.5,1-0.9,2.1-1.1,3.1c-0.2,0.1-0.3,0.2-0.4,0.4c-1.1,1.8-4.2,5.9-7.9,5.9l-0.2,0c-0.7,0-1.2-0.3-1.6-0.9
		c-0.7-1-0.7-2.7-0.2-4.7c2.7,1.8,5.7,1.2,8.1-1.8c1.9-2.4,2.2-5.2,1.3-6.4c-0.7-0.9-1.5-1.6-2.7-2.3c-0.4-0.3-1-0.4-1.5-0.4
		c-2.3,0-5.9,2.2-8.3,7.1c-0.6,1.2-1,2.5-1.2,3.7c-0.1,0.1-0.3,0.2-0.4,0.4c-1.4,3.2-3.3,5.4-4.6,5.4h0c-0.3,0-0.5-0.1-0.6-0.3
		c-0.3-0.5-0.5-1.5-0.1-3c0.5-1.7,2.1-4.1,4.6-7c1.1-1.3,0.6-3-0.1-4.1l0.2-0.3l-0.3,0.2c-0.2-0.2-0.3-0.5-0.5-0.7
		c-0.2-0.2-0.5-0.4-0.8-0.4c-0.4,0-0.7,0.2-1,0.4c-1.3,0.9-2.4,1.5-3.4,1.8c0.5-1.4,1-3.5,0.4-4.5c-0.2-0.3-0.6-0.5-1-0.5
		c0,0,0,0,0,0c-1.3,0-3.3,2.4-3.9,4.5c-0.3,1.2-0.1,2.1,0.5,2.7l-0.4,0.6c-1.6,2.4-3.9,5.7-4.8,7.3c-1.2,2.4-1.2,4.6,0.2,6
		c0.2,0.2,0.5,0.3,0.7,0.3c0.3,0,0.7-0.2,0.8-0.8c0.6-2.9,3-7.1,4.9-10.2c0.6-0.9,1-1.8,1.4-2.5c0.7,0,1.7-0.2,2.9-0.6
		c-1.5,1.9-3,4.1-3.7,6.3c-0.6,1.9-0.5,3.8,0.4,5.1c0.7,1,1.9,1.6,3.3,1.7l0.1,0c2.1,0,4.4-1.5,5.6-3.7c0.1,0.3,0.3,0.6,0.4,0.8
		c1.1,1.7,2.9,2.6,5.1,2.6l0.2,0c3.1-0.1,6.4-1.8,8.4-4.5c0.2,0.6,0.4,1.2,0.7,1.7c1.1,1.7,2.9,2.6,5.1,2.6l0.2,0
		c3.3-0.1,6.8-2,8.7-4.9C261.4,80.6,261.6,79.3,261.3,78.7z M250.7,77.1c0-0.1,0.1-0.2,0.2-0.3c1.8-3.6,4.6-5.8,5.6-5.8
		c0.1,0,0.1,0,0.1,0c0.2,0.3-0.4,2-1.7,3.9c-0.9,1.1-2,2.4-3.3,2.4C251.3,77.3,251,77.2,250.7,77.1z M236.3,77.2
		c0.1-0.1,0.1-0.2,0.2-0.3c1.8-3.6,4.6-5.8,5.6-5.8c0.1,0,0.1,0,0.1,0c0.2,0.3-0.4,2-1.7,3.9c-0.9,1.1-2,2.4-3.3,2.4c0,0,0,0,0,0
		C236.8,77.4,236.5,77.3,236.3,77.2z"/>
	<path fill="#00706A" d="M274.3,58.2c-0.3,0-0.7,0.2-0.9,0.6c-3.2,4.8-7.5,13.4-9.1,17.9c-1.1,3.1-0.3,4.5,0.3,5.1
		c0.1,0.1,0.4,0.3,0.7,0.3c0.5,0,0.7-0.4,0.8-0.7c2.1-4.6,5.5-11.1,8-15.7c2-3.7,1.8-5.8,1.3-6.9C274.9,58.3,274.4,58.2,274.3,58.2z
		"/>
	<path fill="#00706A" d="M262.6,81.5c-0.4,0-0.8,0.2-1.1,0.5c-0.9,1-1,2.5-0.2,3.7c0.4,0.7,1.2,1.2,1.9,1.2c0.5,0,0.9-0.2,1.2-0.5
		c0.6-0.7,0.9-2.1,0.3-3.2C264.3,82.1,263.4,81.5,262.6,81.5z"/>
	<path fill="#00706A" d="M54.7,152.7l13.7,8.6l-1.1,4.9c4.4-1.4,8.3-6.2,12.9-7.5c1.1-0.3,2.2-0.4,3.3-0.4c1.3,0,2.7,0.2,4,0.3
		c1.3,0.2,2.7,0.3,4,0.3c1,0,2-0.1,2.9-0.3l-2.7-3.8l9.3-14.9l-2.7-0.8l0.1-10.4l-6.8,3.7l-2.2-3.8l-5.5,9.7l-0.9-17.9l-4,4.2
		l-6.7-7.7l-3.3,10.5l-5-1.7l5.5,16.6l-8.4-5.8l-0.6,4.6l-7.5,0.3l3.7,9.4L54.7,152.7z"/>
</g>
</svg>
