<?xml version="1.0" encoding="utf-8"?>
<!-- Generator: Adobe Illustrator 18.0.0, SVG Export Plug-In . SVG Version: 6.00 Build 0)  -->
<!DOCTYPE svg PUBLIC "-//W3C//DTD SVG 1.1//EN" "http://www.w3.org/Graphics/SVG/1.1/DTD/svg11.dtd">
<svg version="1.1" id="Layer_1" xmlns="http://www.w3.org/2000/svg" xmlns:xlink="http://www.w3.org/1999/xlink" x="0px" y="0px"
	 viewBox="0 0 301 301" enable-background="new 0 0 301 301" xml:space="preserve">
<g>
	<g>
		<polygon fill="#333333" points="98.3,260.5 98.3,260.5 90.6,294.6 149.9,294.6 143.5,254.4 		"/>
	</g>
	<path fill="none" stroke="#333333" stroke-width="6" stroke-miterlimit="10" d="M258.5,117.3c3.7-9,2.3-18.9-2.9-26.3
		c1.5-1.9,2.7-3.9,3.7-6.3c5.3-13-1-27.7-13.9-33c-7.3-3-15.2-2.3-21.6,1.2c-3.7-10.7-11.8-19.9-23.1-24.5
		c-14.5-5.9-30.4-2.8-41.5,6.7c-0.2-0.1-0.4-0.2-0.6-0.3c-12.1-4.9-25.9,0.9-30.9,13c-1.9,4.6-2.2,9.5-1.2,14.1
		c-3.9,2.5-7.1,6.3-9,10.9c-4.9,12.1,0.9,25.9,13,30.9c1.3,0.5,2.7,1,4.1,1.2c-0.3,0.5-0.5,1.1-0.7,1.6
		c-4.6,11.3,0.8,24.1,12.1,28.7c6.4,2.6,13.4,2,19-1.2c2.6,8.9,9.1,16.7,18.4,20.4c16.1,6.5,34.4-1.2,40.9-17.3
		c0.5-1.2,0.9-2.4,1.2-3.6C238.8,137.4,253.1,130.5,258.5,117.3z"/>
	<g>
		<path fill="#333333" d="M159.3,248.8c1.1-1,2.2-2,3.3-2.9c1.1-0.9,2.3-1.9,3.4-2.7c2.3-1.8,4.6-3.5,7-5.2l2.7-1.9l0.1,3.4
			c0.1,1.6,0.1,3.1,0.1,4.7c0,1.6,0,3.1,0,4.7l-2.7-1.8c3.8-1.5,7.7-3,11.6-4.2c1-0.3,2-0.6,3-0.9c1-0.3,2-0.6,3-0.9
			c1-0.3,2-0.5,3-0.8c1-0.2,2-0.5,3.1-0.7c-0.9,0.6-1.8,1.1-2.6,1.7c-0.9,0.5-1.8,1-2.7,1.5c-0.9,0.5-1.8,1-2.7,1.5
			c-0.9,0.5-1.8,0.9-2.7,1.4c-3.7,1.8-7.4,3.5-11.2,5.1l-2.7,1.1l0-3c0-1.6,0-3.1,0-4.7c0-1.6,0.1-3.1,0.1-4.7l2.8,1.5
			c-2.5,1.4-5.1,2.8-7.7,4.1c-1.3,0.7-2.6,1.3-3.9,1.9C162,247.7,160.7,248.2,159.3,248.8z"/>
	</g>
	<g>
		<path fill="#333333" d="M154.5,258.7c1.4-0.1,2.7-0.1,4-0.1c1.3,0,2.7,0,4,0.1c2.7,0.1,5.3,0.2,8,0.5l2.5,0.2l-1.2,2.4
			c-0.7,1.4-1.4,2.7-2.2,4c-0.7,1.3-1.5,2.7-2.3,4l-1.5-3c4.3,0.4,8.7,1,13,1.8c2.2,0.4,4.3,0.8,6.4,1.3c1.1,0.3,2.1,0.5,3.2,0.8
			c1.1,0.3,2.1,0.6,3.2,0.9c-1.1,0.1-2.2,0.2-3.3,0.2c-1.1,0-2.2,0.1-3.3,0.1c-2.2,0-4.4,0-6.6-0.1c-4.4-0.2-8.7-0.5-13.1-1
			l-3.1-0.3l1.6-2.7c0.8-1.3,1.6-2.6,2.4-3.9c0.8-1.3,1.6-2.6,2.5-3.9l1.3,2.6c-2.6-0.5-5.2-1-7.8-1.7c-1.3-0.3-2.6-0.7-3.9-1
			C157,259.5,155.7,259.2,154.5,258.7z"/>
	</g>
	<g>
		<path fill="#333333" d="M103.6,41c1.2,4.9,1.4,7.4,1.4,8.5c-3.7,3.5-8.7,5.3-15,5.3c-2,0-3.8-0.2-5.3-0.4c0.4-2.6,0.3-5.1,0.1-7.2
			C92.3,46.8,99.3,43.6,103.6,41 M106,34.7c0,0-10.9,8.6-22.8,8.6c-1.1,0-2.2-0.1-3.2-0.2c0,0,2.3,7.4,0,14.4c0,0,4.4,1.3,10.1,1.3
			c5.9,0,13.3-1.5,18.8-7.4C108.8,51.4,110.2,48.1,106,34.7L106,34.7z"/>
	</g>
	<g>
		<path fill="#333333" d="M62.7,71.9c2,5.9,5.9,10.8,9,13.9c-3.2,1.7-5.2,2.4-6.1,2.7c-5.9-3.8-7.7-10.9-8.2-15.3
			C59.3,73,61.2,72.5,62.7,71.9 M65.5,66.2c0,0-5.2,3.2-11.2,3.2c-0.4,0-0.7,0-1.1,0c0,0-0.7,16.7,11.6,23.2c0,0,0,0,0.2,0
			c0.7,0,4.2-0.4,13.5-6.1C78.4,86.6,66.8,77.7,65.5,66.2L65.5,66.2z"/>
	</g>
	<g>
		<path fill="#333333" d="M94.1,104.9c7.8,3.6,10.8,10.7,11.9,15c-3.3,0.9-6.3,2.4-8.7,3.8c-3-6.7-8.2-12-12.1-15.2
			C90.2,105.4,93.1,104.9,94.1,104.9 M94.3,100.9c-1.8,0-7,0.7-15.9,7.5c0,0,14.1,8.7,16.8,21.6c0,0,8.1-6.6,15.4-6.8
			c0,0-1-16.2-15.6-22.2C95,100.9,94.8,100.9,94.3,100.9L94.3,100.9z"/>
	</g>
	<g>
		<path fill="#333333" d="M70.6,125.9c2.5,0,4.8,0.6,6.5,1.3c-0.7,1.8-1.1,3.7-1.4,5.4c-2-0.4-4.1-0.6-6.3-0.6
			c-2.5,0-4.8,0.3-6.8,0.6c0.5-3.1,1.3-4.6,1.6-5.2C66.2,126.4,68.4,125.9,70.6,125.9 M70.6,121.9c-2.8,0-5.8,0.6-8.9,2.3
			c0,0-3.3,2.7-3.5,13.6c0,0,5.1-1.8,11.2-1.8c3.2,0,6.7,0.5,9.8,2.1c0,0-0.1-8,3.3-12.5C82.5,125.5,77.4,121.9,70.6,121.9
			L70.6,121.9z"/>
	</g>
	<g>
		<path fill="#333333" d="M62.7,219.2c0.1,2,0.5,3.8,1,5.5c-4.7,1.1-8.9,3.4-11.8,5.5c-0.9-3-0.8-4.7-0.7-5.4
			C54.6,220.5,59.4,219.4,62.7,219.2 M64,215.2c-4.1,0-11.5,1-16.5,7.9c0,0-1.8,3.8,2.6,13.8c0,0,8.8-8.7,18.7-8.7
			c0.1,0,0.3,0,0.4,0c0,0-3.5-7.2-2.4-12.7C66.9,215.3,65.7,215.2,64,215.2L64,215.2z"/>
	</g>
	<g>
		<path fill="#333333" d="M86,153.9c2.8,3.9,6.6,6.9,9.6,8.8c-2.4,1.9-4,2.6-4.7,2.7c-5.3-1.5-8.2-5.6-9.6-8.5
			C83.1,156,84.7,154.9,86,153.9 M87.1,147.5c0,0-5.3,6-10.8,7.1c0,0,2.7,12.1,14.6,14.9c0,0,0,0,0,0c0.4,0,4.5-0.2,11.7-7.7
			C102.5,161.8,90.7,156.9,87.1,147.5L87.1,147.5z"/>
	</g>
	<g>
		<path fill="#333333" d="M248.9,165.7c2.5,0.7,5.3,1,8.2,1c1.7,0,3.3-0.1,4.8-0.3c-0.7,3-1.5,4.5-1.9,5.1c-1.8,0.8-3.7,1.1-5.6,1.1
			c-2.9,0-5.4-0.8-7.2-1.7C248,169.2,248.5,167.4,248.9,165.7 M245.6,160.1c0,0-0.3,8-4,12.3c0,0,5.4,4.3,12.7,4.3
			c2.5,0,5.2-0.5,8-1.8c0,0,3.4-2.5,4.3-13.3c0,0-4.2,1.3-9.5,1.3C253.4,162.8,249.2,162.2,245.6,160.1L245.6,160.1z"/>
	</g>
	<g>
		<path fill="#333333" d="M41.5,163.9c3,0.8,4.4,1.7,5,2.2c1.9,5.2,0.4,9.9-1.1,12.8c-1.7-0.9-3.6-1.5-5.2-2
			C41.7,172.2,41.8,167.5,41.5,163.9 M36.8,158.9c0,0,3,12.4-2.4,20.9c0,0,8,0.7,12.1,4.6c0,0,8.2-9.4,3.4-20.6
			C49.9,163.8,47.6,160.3,36.8,158.9L36.8,158.9z"/>
	</g>
	<path fill="#333333" d="M174.1,85.7l-8.7,6.3c1.3,2,2.9,3.9,4.7,5.6c3.1-1.2,7.4-1.2,12.8,2.8c0,0,5.6-4.4,10.5,3.2
		c0,0,1.3-13.6,13.1-13.2c-1.4-3.7-4.9-7-10.2-10.4l2.8-7.5c2.6,1.7,5.1,4.2,7,6.9l8.3-6.6c-2.9-3.9-6.6-7.2-11.5-9.7l1.4-3.8
		l-6.5-2.4l-1.3,3.6c-9.8-2.8-17.2,0.3-19.9,7.6l0,0.1c-2.9,7.9,1.1,13.2,10.3,19.3l-2.8,7.6C180.3,93.1,177.2,90,174.1,85.7z
		 M195.2,95.9l0,0.1c-0.7,1.8-2.4,2.5-5.4,1.7l2.5-6.9C195.2,92.9,195.8,94.2,195.2,95.9z M187.9,71.5l0-0.1
		c0.6-1.6,2.3-2.5,5.4-1.5l-2.5,6.8C187.8,74.4,187.2,73.1,187.9,71.5z"/>
	<path fill="none" stroke="#333333" stroke-width="6" stroke-linecap="round" stroke-linejoin="round" stroke-miterlimit="10" d="
		M213.7,92c-18.4-7.3-20.2,11.5-20.2,11.5c-4.9-7.6-10.5-3.2-10.5-3.2c-12.1-9-18.3,2-19.5,2.2"/>
	<path fill="none" stroke="#333333" stroke-width="4" stroke-miterlimit="10" d="M181.6,25.7c0,0-0.1-10,4.1-15.6l-15.4-3.7
		c0,0-7.9,10.9-4.6,24.3"/>
	<path fill="none" stroke="#333333" stroke-width="4" stroke-miterlimit="10" d="M202,156.1c0,0-1.3,8.9,0,13.1l14.3-3.3
		c0,0-2.3-8.7,0-17.4"/>
	<path fill="none" stroke="#333333" stroke-width="6" stroke-linecap="round" stroke-linejoin="round" stroke-miterlimit="10" d="
		M146.2,58.8c1.9,0.3,3-8.4,14.5-8.4"/>
	<path fill="none" stroke="#333333" stroke-width="6" stroke-linecap="round" stroke-linejoin="round" stroke-miterlimit="10" d="
		M231.9,70.3c0,0,12.4,3.7,9.3,17.4"/>
	<path fill="none" stroke="#333333" stroke-width="6" stroke-linecap="round" stroke-linejoin="round" stroke-miterlimit="10" d="
		M185.6,130c0,0,20.2,9.5,30.7-8.1"/>
	<path fill="#333333" d="M164.9,134.1c-4.4,2.4-9.5,3.4-14.6,2.4L138,162.9c-1.8-4.6-3.8-9.9-3.8-10.5c0-1,3.2-23.3,3.2-23.3l-3.2-5
		l-2-9.1l-9.7,35.7l5.3,34.2l-20.9,44.7l36.4,27.6l36.3-104.4C172.3,148.6,167.1,141.8,164.9,134.1z"/>
	
		<line fill="none" stroke="#333333" stroke-width="6" stroke-linecap="round" stroke-miterlimit="10" x1="60.9" y1="294.6" x2="179.6" y2="294.6"/>
</g>
</svg>
