<?xml version="1.0" encoding="utf-8"?>
<!-- Generator: Adobe Illustrator 16.0.0, SVG Export Plug-In . SVG Version: 6.00 Build 0)  -->
<!DOCTYPE svg PUBLIC "-//W3C//DTD SVG 1.1//EN" "http://www.w3.org/Graphics/SVG/1.1/DTD/svg11.dtd">
<svg version="1.1" id="Layer_1" xmlns="http://www.w3.org/2000/svg" xmlns:xlink="http://www.w3.org/1999/xlink" x="0px" y="0px"
	 width="151.533px" height="71.25px" viewBox="38.514 47.521 151.533 71.25" enable-background="new 38.514 47.521 151.533 71.25"
	 xml:space="preserve">
<g>
	<path fill="#FFFFFF" d="M135.518,61.289c-0.899-0.572-1.805-1.066-2.876-1.561c-0.738,2.221-1.229,4.52-1.395,6.9
		c0.74,0.332,1.395,0.74,2.056,1.07C133.792,65.48,134.532,63.346,135.518,61.289z"/>
	<path fill="#FFFFFF" d="M131.246,99.736c0.166,2.381,0.657,4.684,1.394,6.902c0.989-0.498,1.977-0.99,2.876-1.561
		c-0.985-1.973-1.726-4.107-2.215-6.326C132.726,99.162,131.988,99.49,131.246,99.736z"/>
	<path fill="#FFFFFF" d="M131.164,59.072c-1.065-0.41-2.135-0.82-3.286-1.068c-0.163,1.316-0.247,2.549-0.247,3.861v3.451
		c0.738,0.164,1.398,0.412,2.056,0.658C129.933,63.592,130.427,61.289,131.164,59.072z"/>
	<path fill="#FFFFFF" d="M127.631,101.217v3.367c0,1.313,0.084,2.547,0.247,3.861c1.151-0.248,2.219-0.658,3.286-1.068
		c-0.737-2.215-1.231-4.52-1.478-6.9C129.03,100.721,128.369,100.969,127.631,101.217z"/>
	<path fill="#FFFFFF" d="M123.691,64.58c0.738,0.076,1.48,0.16,2.217,0.322v-3.037c0-1.479,0.166-2.879,0.328-4.273
		c-1.396-0.244-2.877-0.408-4.434-0.408c0.901,2.385,1.395,4.848,1.557,7.396C123.528,64.58,123.605,64.58,123.691,64.58z"/>
	<path fill="#FFFFFF" d="M126.073,104.584v-2.959c-0.741,0.084-1.481,0.166-2.22,0.244c-0.163,0-0.247,0-0.326,0
		c-0.169,2.549-0.741,5.014-1.563,7.396c1.394,0,2.874-0.164,4.355-0.408c-0.246-1.395-0.332-2.877-0.332-4.273H126.073z"/>
	<path fill="#FFFFFF" d="M121.306,64.58h0.083c0.08,0,0.245,0,0.325,0c-0.162-2.551-0.735-5.014-1.642-7.398
		c-1.973,0-3.94,0.084-5.997,0.326c1.89,2.221,3.368,4.688,4.519,7.395C119.503,64.74,120.405,64.656,121.306,64.58z"/>
	<path fill="#FFFFFF" d="M121.306,101.869c-0.901-0.078-1.805-0.16-2.71-0.322c-1.151,2.705-2.63,5.174-4.521,7.395
		c1.973,0.246,4.026,0.326,5.998,0.326c0.905-2.385,1.479-4.848,1.642-7.398c-0.081,0-0.245,0-0.325,0H121.306z"/>
	<path fill="#FFFFFF" d="M113.995,66.221c0.986-0.412,1.971-0.74,2.957-0.988c-1.232-2.711-2.877-5.256-4.931-7.473
		c-1.805,0.326-3.612,0.82-5.421,1.561C109.477,61.125,112.022,63.426,113.995,66.221z"/>
	<path fill="#FFFFFF" d="M113.995,100.15c-1.974,2.793-4.519,5.176-7.311,6.9c1.725,0.736,3.532,1.227,5.423,1.561
		c2.05-2.221,3.694-4.766,4.845-7.477C115.968,100.891,114.984,100.561,113.995,100.15z"/>
	<path fill="#FFFFFF" d="M109.558,68.604c0-0.084,0-0.084,0.081-0.084c0.166-0.162,0.331-0.246,0.494-0.328
		c0.246-0.164,0.577-0.328,0.823-0.492c0.162-0.08,0.247-0.08,0.324-0.166c0.332-0.164,0.578-0.328,0.905-0.496
		c0.082,0,0.082,0,0.082,0c0.084,0,0.084-0.076,0.166-0.076c-2.056-2.797-4.687-5.096-7.639-6.74
		c-1.153,0.496-2.222,1.15-3.371,1.809C104.63,63.506,107.421,65.729,109.558,68.604z"/>
	<path fill="#FFFFFF" d="M112.436,99.49c-0.412-0.246-0.82-0.408-1.229-0.66c-0.086,0-0.086-0.078-0.086,0
		c-0.327-0.158-0.575-0.326-0.901-0.49c-0.166-0.082-0.247-0.162-0.413-0.246c-0.081-0.082-0.166-0.082-0.246-0.162
		c-2.138,2.875-4.928,5.092-8.133,6.568c1.149,0.661,2.298,1.319,3.37,1.811C107.75,104.584,110.38,102.283,112.436,99.49z"/>
	<path fill="#FFFFFF" d="M108.082,96.945c-0.164-0.082-0.413-0.248-0.494-0.328c-0.084-0.082-0.166-0.082-0.245-0.166
		c-0.33-0.33-0.74-0.574-1.068-0.818c-0.082-0.084-0.166-0.084-0.247-0.17c-0.165-0.162-0.412-0.242-0.574-0.408
		c0-0.082-0.083-0.082-0.083-0.082c-2.383,2.874-5.584,4.928-9.2,5.917c1.233,0.906,2.382,1.724,3.531,2.464
		C102.987,102.036,105.946,99.822,108.082,96.945z"/>
	<path fill="#FFFFFF" d="M105.368,71.559c0.904-0.74,1.812-1.477,2.714-2.053c-2.137-2.877-5.096-5.092-8.382-6.328
		c-1.149,0.74-2.3,1.563-3.532,2.465C99.698,66.627,102.906,68.682,105.368,71.559z"/>
	<path fill="#FFFFFF" d="M101.343,75.01l0.083-0.082c0.083-0.082,0.163-0.162,0.247-0.246c0.327-0.246,0.573-0.492,0.822-0.74
		c0.164-0.162,0.327-0.33,0.489-0.492c0.165-0.082,0.247-0.164,0.33-0.246c0.246-0.246,0.494-0.408,0.738-0.656
		c-2.467-2.959-5.833-4.926-9.609-5.668c-1.235,0.9-2.466,1.971-3.782,3.036c-0.162,0.085-0.247,0.167-0.325,0.246h0.902
		C95.181,70.16,98.881,71.971,101.343,75.01z"/>
	<path fill="#FFFFFF" d="M104.137,93.821c-0.082,0-0.165-0.084-0.247-0.164c-0.165-0.083-0.326-0.161-0.411-0.246
		c-0.162-0.245-0.409-0.408-0.572-0.571c-0.081-0.084-0.167-0.169-0.244-0.249c-0.333-0.245-0.577-0.573-0.906-0.82
		c-0.081-0.083-0.081-0.083-0.081-0.083c-0.166-0.163-0.248-0.247-0.332-0.324c-2.462,3.037-6.162,4.842-10.103,4.842h-0.903
		c0.163,0.086,0.246,0.165,0.325,0.245c1.318,1.072,2.548,2.139,3.782,3.039C98.223,98.751,101.675,96.782,104.137,93.821z"/>
	<path fill="#FFFFFF" d="M97.07,79.115c1.4-1.229,2.631-2.461,3.043-2.873c-2.136-2.709-5.424-4.354-8.872-4.354h-2.957
		c-0.741,0.658-1.563,1.313-2.218,1.89c-0.824,0.656-1.564,1.232-2.219,1.808h6.815C93.29,75.585,95.674,76.979,97.07,79.115z"/>
	<path fill="#FFFFFF" d="M100.112,90.207c-0.413-0.412-1.562-1.641-3.043-2.87c-1.396,2.136-3.778,3.53-6.407,3.53h-6.816
		c0.738,0.571,1.48,1.15,2.219,1.804c0.656,0.577,1.397,1.235,2.217,1.893h2.958C94.688,94.562,97.975,92.917,100.112,90.207z"/>
	<path fill="#FFFFFF" d="M92.228,82.323c0.244-0.083,0.654-0.246,1.147-0.494c0.081-0.085,0.163-0.085,0.247-0.168
		c0.655-0.41,1.396-0.901,2.136-1.476c-1.07-1.809-3.038-2.961-5.096-2.876h-8.789c-1.56,1.234-2.795,2.3-3.941,3.125h11.665
		C90.827,80.433,91.815,81.249,92.228,82.323z"/>
	<path fill="#FFFFFF" d="M95.758,86.264c-0.74-0.572-1.561-1.064-2.22-1.477c0-0.083-0.083-0.083-0.083,0
		c0-0.083-0.081-0.083-0.081-0.083c-0.494-0.247-0.824-0.412-1.148-0.496c-0.412,1.067-1.399,1.891-2.629,1.891H77.93
		c1.148,0.82,2.384,1.889,3.942,3.125h8.789C92.72,89.224,94.688,88.071,95.758,86.264z"/>
	<path fill="#FFFFFF" d="M90.746,83.225c0-0.656-0.493-1.149-1.149-1.149H76.039c-0.654,0-1.146,0.493-1.146,1.149
		c0,0.655,0.492,1.148,1.146,1.148h13.558C90.253,84.373,90.746,83.88,90.746,83.225z"/>
	<path fill="#FFFFFF" d="M190.68,54.884h-20.614c0.046-0.147,0.088-0.292,0.123-0.413c0.082-0.244-0.083-0.408-0.246-0.408
		c-0.084,0-0.084,0-0.084,0c-0.573,0.084-1.475,0.246-1.475,0.246c-0.082,0-0.167-0.082-0.167-0.082l-0.408-0.658
		c-0.084-0.084-0.165-0.162-0.247-0.162c-0.083,0-0.165,0-0.247,0.08l-1.166,1.397h-0.449c-0.008-0.027-0.028-0.046-0.028-0.083
		c0-0.082,0-0.082,0-0.082l0.742-3.121c0.078-0.168-0.085-0.33-0.248-0.33c-0.082,0-0.082,0-0.166,0
		c-0.413,0.248-0.905,0.494-0.905,0.494c-0.081,0-0.163-0.082-0.163-0.082l-1.233-2.219c0-0.082-0.082-0.082-0.082-0.082
		l-0.082,0.082L162.3,51.68c0,0.082,0,0.082-0.08,0.082c0,0-0.495-0.246-0.907-0.494c-0.079,0-0.079,0-0.163,0
		c-0.163,0-0.33,0.162-0.245,0.33c0.245,1.148,0.738,3.203,0.738,3.203c0,0.035-0.02,0.055-0.027,0.083h-0.303v0.121
		c-0.02-0.021-0.04-0.041-0.079-0.041l-1.232-1.478c-0.084-0.08-0.165-0.08-0.247-0.08c-0.083,0-0.165,0.08-0.242,0.162
		l-0.414,0.658c-0.082,0.082-0.082,0.082-0.167,0.082c0,0-0.818-0.162-1.394-0.246h-0.084c-0.165,0-0.328,0.246-0.246,0.408
		c0.167,0.658,0.495,1.646,0.495,1.646c0,0.081,0,0.167-0.083,0.167l-0.412,0.246c-0.165,0.078-0.165,0.324,0,0.49l3.204,2.549
		c0.083,0,0.083,0.082,0.083,0.082s-0.167,0.659-0.246,1.066c-0.017,0.028-0.012,0.057-0.015,0.083l-18.341-0.001
		c0.125-0.08,0.232-0.174,0.362-0.244c-1.889-1.891-10.021-9.533-21.442-9.533c-12.815,0-19.795,0.658-37.708,15.692
		c-2.136,1.805-4.024,3.367-5.666,4.763c-8.709,7.313-12.406,10.435-15.772,11.748c3.367,1.312,7.229,4.521,15.772,11.42
		c1.642,1.477,3.53,3.037,5.584,4.767c17.995,15.114,24.975,15.771,37.877,15.771c11.416,0,19.469-7.637,21.357-9.609h18.484
		c-0.167,0-0.245,0.163-0.245,0.324c0.078,0.414,0.245,1.072,0.245,1.072c0,0.082-0.081,0.163-0.081,0.163l-3.205,2.548
		c-0.167,0.165-0.167,0.41,0,0.489l0.412,0.247c0.082,0,0.082,0.081,0.082,0.165c0,0-0.328,0.905-0.494,1.56
		c-0.081,0.248,0.082,0.41,0.247,0.41c0.082,0,0.082,0,0.082,0c0.575-0.084,1.395-0.248,1.395-0.248
		c0.084,0,0.166,0.086,0.166,0.086l0.409,0.654c0.082,0.084,0.163,0.166,0.247,0.166c0.082,0,0.163,0,0.245-0.082l1.231-1.482
		c0-0.08,0.082-0.08,0.165-0.08c0.163,0,0.247,0.08,0.247,0.244c0,0.086-0.493,2.137-0.74,3.209
		c-0.084,0.162,0.081,0.326,0.247,0.326c0.081,0,0.081,0,0.163,0c0.41-0.246,0.899-0.496,0.899-0.496l0.088,0.082l1.229,2.221
		c0,0.082,0.082,0.082,0.082,0.082s0.081,0,0.081-0.082l1.232-2.221c0.083-0.082,0.083-0.082,0.163-0.082
		c0,0,0.493,0.25,0.905,0.496c0.082,0,0.082,0,0.165,0c0.163,0,0.326-0.164,0.247-0.326l-0.74-3.123c0-0.086,0-0.086,0-0.086
		c0-0.164,0.081-0.244,0.246-0.244c0.082,0,0.082,0,0.164,0.08l1.231,1.482c0.082,0.082,0.163,0.082,0.247,0.082
		c0.081,0,0.161-0.082,0.246-0.166l0.408-0.654c0.084-0.086,0.084-0.086,0.163-0.086c0.084,0,0.904,0.164,1.481,0.249h0.083
		c0.161,0,0.324-0.249,0.247-0.41c-0.052-0.199-0.117-0.43-0.186-0.655h20.428V54.884H190.68z M167.723,105.572v0.163
		c-0.042-0.094-0.141-0.163-0.248-0.163H167.723z M135.765,84.127h-2.297h-1.728c0.082,0.33,0.163,0.74,0.245,1.232
		c0.247,1.152,0.575,2.629,0.738,3.615c-1.396-0.412-1.396-0.412-1.561-0.412c-0.326,0-0.572,0.082-0.819,0.332
		c-0.084,0-0.084,0.08-0.084,0.08l-4.272,5.42l-0.245-0.41c-0.163-0.328-0.571-0.574-0.985-0.574c-0.165,0-0.165,0-2.71,0.824
		c0.407-2.219,0.407-2.219,0.407-2.305c0-0.326-0.16-0.656-0.407-0.902l-0.082-0.08l-0.82-0.494l2.3-2.055
		c0-0.084,0.083-0.084,0.083-0.084c0.163-0.244,0.326-0.57,0.326-0.904c0-0.656-0.572-1.227-1.312-1.227c-0.086,0-0.166,0-0.333,0
		l-5.013,1.15c0.658-1.232,0.658-1.232,0.658-1.479c0-0.334-0.165-0.656-0.489-0.904h-0.084l-3.122-1.727l3.039-1.809
		c0.33-0.166,0.493-0.49,0.493-0.9c0-0.25,0-0.25-0.656-1.479c5.176,1.229,5.26,1.229,5.342,1.229c0.739,0,1.315-0.572,1.315-1.313
		c0-0.25-0.085-0.576-0.333-0.82l-0.078-0.084l-2.302-1.975l0.822-0.492c0.082,0,0.082-0.082,0.163-0.082
		c0.244-0.246,0.411-0.572,0.411-0.9c0-0.082,0-0.082-0.411-2.303c2.547,0.824,2.547,0.824,2.712,0.824
		c0.408,0,0.818-0.246,0.985-0.576l0.247-0.41l4.271,5.42l0.082,0.084c0.247,0.246,0.495,0.326,0.825,0.326
		c0.08,0,0.162,0,1.557-0.408l-0.986,4.768h1.725h2.222h2.384v1.803H135.765L135.765,84.127z M132.563,108.363
		c-1.724,0.738-3.453,1.316-5.179,1.727c-1.969,0.41-3.857,0.658-5.832,0.658c-0.331,0-0.573,0-0.9,0
		c-2.715,0-5.591-0.086-8.383-0.58c-2.711-0.488-5.175-1.227-7.804-2.46c-1.643-0.74-3.37-1.728-5.259-2.961
		c-1.643-1.066-3.448-2.383-5.423-3.859c-1.312-0.989-2.708-2.14-4.105-3.287c-0.658-0.573-1.397-1.152-2.056-1.726
		c-0.821-0.738-1.641-1.396-2.463-2.054c-1.476-1.232-2.794-2.299-3.944-3.286c-1.725-1.396-3.122-2.548-4.271-3.449
		c-1.23-0.824-2.137-1.48-3.039-1.973c0,0-1.15-0.99-1.15-2.054c0-0.576,0.33-1.07,0.657-1.479c0.33-0.409,0.654-0.656,0.654-0.656
		c1.726-0.987,3.781-2.549,7.147-5.343c1.15-0.904,2.468-2.052,3.944-3.286c0.738-0.654,1.561-1.312,2.464-2.052
		c0.657-0.578,1.313-1.15,2.056-1.728c1.396-1.148,2.792-2.298,4.104-3.285c1.975-1.48,3.779-2.793,5.424-3.861
		c1.812-1.15,3.531-2.137,5.258-2.955c2.548-1.234,5.095-1.975,7.805-2.467c2.792-0.494,5.668-0.576,8.382-0.576
		c0.328,0,0.571,0,0.901,0c1.975,0,3.94,0.248,5.831,0.658c1.727,0.41,3.534,0.984,5.179,1.727c1.561,0.658,3.041,1.477,4.518,2.463
		c0.324,0.223,0.625,0.432,0.907,0.633v2.141c-0.296-0.225-0.623-0.463-0.989-0.719c-0.986,2.055-1.644,4.191-2.135,6.404
		c0.738,0.496,1.395,0.904,1.889,1.318c0.123-1.061,0.439-2.785,1.233-4.563v12.498c-0.89-1.582-1.413-3.443-1.566-5.551
		c-0.817-0.74-3.858-3.207-7.967-4.688h-0.081c-0.162,0-0.41-0.078-0.573-0.164c0-0.082-0.082-0.082-0.166-0.082
		c-0.246-0.082-0.572-0.166-0.819-0.246c-0.167,0-0.246-0.082-0.41-0.082c-0.083-0.084-0.165-0.084-0.246-0.084
		c-0.247-0.078-0.413-0.078-0.661-0.16c-0.078,0-0.163,0-0.245,0c-0.657-0.084-1.23-0.164-1.891-0.248h-0.079
		c-0.245,0-0.576,0-0.903,0h-0.168c-0.327,0-0.655,0-0.986,0h-0.079c-1.069,0-2.053,0.164-3.123,0.408
		c-1.396,0.332-2.876,0.74-4.271,1.398c-0.654,0.246-1.397,0.576-2.056,0.986c-0.082,0-0.082,0.084-0.163,0.084
		c-0.325,0.16-0.572,0.326-0.903,0.492c-0.082,0.082-0.164,0.082-0.246,0.162c-0.163,0.084-0.409,0.246-0.574,0.332
		c-0.247,0.082-0.412,0.244-0.659,0.408c-0.163,0.084-0.245,0.162-0.408,0.246c-0.164,0.08-0.328,0.246-0.493,0.328
		c-0.083,0.082-0.247,0.166-0.328,0.246c-0.166,0.082-0.412,0.246-0.575,0.412c-0.163,0.162-0.41,0.328-0.575,0.492
		c-0.081,0.082-0.247,0.246-0.412,0.326c-0.081,0.084-0.246,0.246-0.408,0.33c-0.166,0.08-0.246,0.248-0.412,0.326
		c-0.246,0.25-0.49,0.414-0.736,0.662c-0.083,0.08-0.165,0.162-0.245,0.244c-0.248,0.162-0.413,0.41-0.66,0.572
		c-0.081,0-0.165,0.086-0.246,0.168c-0.658,0.492-1.23,1.15-1.89,1.721c-0.165,0.086-0.244,0.172-0.328,0.248l-0.081,0.082
		c0,0,0,0-0.082,0.082c-0.656,0.66-2.958,3.124-5.505,4.85c-0.577,0.408-1.146,0.821-1.642,1.07
		c0.571,0.242,1.149,0.652,1.724,1.063c2.465,1.81,4.767,4.191,5.423,4.851l0.082,0.077c0.081,0,0.081,0.084,0.165,0.084
		c0.079,0.085,0.079,0.165,0.165,0.165v0.082c0.986,0.988,1.97,1.891,2.956,2.712c0.328,0.246,0.576,0.496,0.902,0.74
		c0.082,0.082,0.082,0.082,0.167,0.166c0.245,0.16,0.492,0.408,0.738,0.57c0.081,0.084,0.163,0.084,0.247,0.166
		c0.245,0.246,0.57,0.492,0.818,0.658c0.084,0.082,0.165,0.082,0.245,0.162c0.246,0.164,0.413,0.33,0.66,0.494
		c0.163,0,0.245,0.082,0.327,0.162c0.331,0.17,0.575,0.332,0.821,0.494c0.08,0.082,0.165,0.164,0.246,0.164
		c0.247,0.166,0.574,0.326,0.821,0.496c0.084,0,0.165,0.08,0.165,0.08c0.326,0.164,0.655,0.412,0.982,0.576c0.084,0,0.084,0,0.084,0
		c0.74,0.408,1.48,0.738,2.137,1.066c1.396,0.66,2.877,1.07,4.272,1.396c1.064,0.244,2.137,0.328,3.122,0.412h0.08
		c0.332,0,0.659,0,0.986,0h0.165c0.329,0,0.66,0,0.985,0h0.084c0.655-0.084,1.232-0.168,1.888-0.25c0.084,0,0.163,0,0.247,0
		c0.247-0.078,0.41-0.078,0.655-0.162c0.165,0,0.248-0.082,0.332-0.082c0.161,0,0.245-0.082,0.408-0.082
		c0.331-0.086,0.575-0.162,0.823-0.246c0,0,0.08-0.082,0.164-0.082c0.161,0,0.408-0.082,0.573-0.162h0.083
		c4.108-1.482,7.147-3.943,7.967-4.684c0.128-1.764,0.514-3.35,1.154-4.758v11.336c-0.792-1.74-1.11-3.465-1.233-4.529
		c-0.494,0.414-1.15,0.906-1.973,1.398c0.491,2.137,1.148,4.271,2.134,6.326c0.41-0.297,0.764-0.559,1.072-0.795v1.922
		c-0.282,0.197-0.583,0.398-0.905,0.6C135.681,106.883,134.123,107.709,132.563,108.363z M164.107,106.229l-3.287-0.656h6.573
		C166.573,105.735,164.107,106.229,164.107,106.229z M167.475,106.969c0,0,0.165-0.656,0.248-1.068v1.367l-0.163-0.136
		C167.475,107.051,167.475,107.051,167.475,106.969z"/>
</g>
<g>
	<path fill="#04716B" d="M172.297,109.202c-0.003-0.68-0.325-1.342-0.902-1.822l-2.103-1.683c0.148-0.798-0.182-1.428-0.455-1.844
		l-0.082-0.101c-0.547-0.544-1.208-0.832-1.911-0.832h-0.41l-0.23,0.044c-0.228,0.09-0.779,0.203-1.268,0.302
		c-0.037,0.008-0.073,0.015-0.11,0.022c-0.829-4.708-4.135-16.847-16.091-16.847c-0.839,0-1.521,0.681-1.521,1.517
		c0,0.841,0.683,1.524,1.521,1.524c9.711,0,12.381,10.108,13.027,13.76l-1.156-0.232l-0.529-0.012c-0.718,0-1.486,0.38-1.959,0.969
		c-0.419,0.524-0.598,1.193-0.501,1.836l-2.173,1.737c-0.643,0.511-0.982,1.321-0.893,2.04c0,0.439,0.14,0.888,0.376,1.237
		c-0.011,0.034-0.025,0.073-0.042,0.121l-0.063,0.185c-0.216,0.746-0.101,1.509,0.324,2.148c0.422,0.634,1.166,1.013,1.989,1.013
		h0.33c0.069,0,0.132-0.01,0.189-0.022c0.187,0.168,0.403,0.309,0.638,0.414c0.041,0.507,0.247,1.027,0.604,1.465
		c0.547,0.546,1.207,0.835,1.909,0.835c0.049,0,0.103,0,0.16-0.002l0.38,0.7c0.451,0.677,1.214,1.097,1.989,1.097
		c0.815,0,1.522-0.39,2.012-1.13l0.339-0.586c0.064,0.003,0.124,0.003,0.179,0.003c0.765,0,1.515-0.34,1.959-0.89
		c0.317-0.396,0.512-0.896,0.554-1.392c0.267-0.105,0.51-0.252,0.714-0.432c0.059,0.01,0.125,0.018,0.199,0.018h0.33
		c0.819,0,1.562-0.377,1.985-1.01c0.273-0.411,0.419-0.875,0.43-1.354h18.321l0.316-0.642v-0.798l-0.285-1.357H172.297z
		 M165.16,114.123c-0.146-0.077-0.245-0.127-0.245-0.127l-0.132-0.066h-0.148c-0.304,0-0.521,0.184-0.601,0.263l-0.865,1.508
		l-0.706-1.27c-0.074-0.31-0.326-0.501-0.682-0.501h-0.149l-0.133,0.067c0,0-0.103,0.052-0.255,0.132
		c0.251-1.109,0.572-2.444,0.572-2.445l0.018-0.146c0-0.51-0.357-0.866-0.869-0.866c-0.283,0-0.435,0.094-0.645,0.303l-0.917,1.105
		l-0.191-0.307l-0.094-0.116c-0.166-0.162-0.317-0.256-0.601-0.256l-0.122,0.012c-0.003,0.001-0.412,0.083-0.847,0.155
		c0.159-0.508,0.341-1.056,0.342-1.058l0.031-0.196c0-0.384-0.17-0.593-0.362-0.697l2.863-2.281
		c0.173-0.169,0.272-0.323,0.272-0.613l-0.02-0.154c0-0.002-0.062-0.24-0.126-0.515l2.864,0.574l0.122-0.024
		c0,0,1.731-0.346,2.742-0.547c-0.064,0.273-0.124,0.512-0.125,0.513l-0.019,0.153c0,0.31,0.186,0.528,0.317,0.655l2.634,2.096
		c-0.243,0.069-0.51,0.277-0.51,0.759l0.032,0.197c0.001,0.004,0.191,0.574,0.357,1.146c-0.475-0.078-0.953-0.165-0.955-0.166
		l-0.112-0.01c-0.304,0-0.521,0.181-0.601,0.258l-0.283,0.419l-0.848-1.015c-0.098-0.204-0.31-0.392-0.714-0.392
		c-0.513,0-0.871,0.357-0.871,0.946L165.16,114.123z"/>
	<path fill="#04716B" d="M157.614,60.41c-0.121,0.783,0.206,1.394,0.51,1.843c0.529,0.637,1.185,0.96,1.949,0.96h0.408l1.281-0.245
		c-0.646,3.651-3.316,13.759-13.029,13.759c-0.839,0-1.521,0.683-1.521,1.521c0,0.838,0.684,1.52,1.522,1.52
		c12.034,0,15.345-12.771,16.083-16.748c0.087,0.021,0.174,0.042,0.26,0.063c0.486,0.118,0.947,0.23,1.252,0.282l0.514,0.009
		c0.717,0,1.485-0.38,1.959-0.97c0.433-0.541,0.607-1.233,0.488-1.89l2.061-1.649c0.627-0.42,0.971-1.123,0.949-1.855h18.01
		l0.318-0.798l0.045-0.887l-0.216-0.949h-18.422c-0.012-0.479-0.157-0.945-0.433-1.36c-0.425-0.631-1.168-1.008-1.986-1.008h-0.326
		c-0.084,0-0.16,0.015-0.227,0.031c-0.214-0.175-0.445-0.318-0.685-0.424c-0.041-0.503-0.246-1.022-0.604-1.463
		c-0.549-0.547-1.21-0.836-1.911-0.836c-0.05,0-0.104,0-0.161,0.002l-0.378-0.705c-0.445-0.663-1.227-1.092-1.99-1.092
		c-0.805,0-1.512,0.387-2.023,1.146l-0.35,0.652c-0.057-0.002-0.109-0.002-0.158-0.002c-0.771,0-1.521,0.341-1.953,0.885
		c-0.323,0.399-0.521,0.909-0.562,1.413c-0.23,0.104-0.446,0.244-0.631,0.41c-0.058-0.011-0.123-0.019-0.196-0.019h-0.328
		c-0.821,0-1.565,0.378-1.989,1.014c-0.409,0.617-0.53,1.35-0.346,2.072c0.008,0.157,0.038,0.293,0.076,0.41
		c-0.171,0.282-0.323,0.641-0.319,1.042c-0.106,0.78,0.221,1.571,0.885,2.125L157.614,60.41z M161.297,55.95
		c0.512,0,0.869-0.357,0.869-0.869c0-0.108,0-0.122-0.411-1.87l-0.167-0.716c0.147,0.078,0.248,0.127,0.248,0.127l0.407,0.202
		l0.317-0.325l0.938-1.585l0.759,1.368l0.095,0.127c0.166,0.175,0.32,0.276,0.614,0.276h0.146l0.132-0.065
		c0,0,0.097-0.048,0.24-0.123l-0.559,2.358l-0.017,0.226c0,0.512,0.358,0.869,0.871,0.869c0.119,0,0.23-0.027,0.332-0.081h0.125
		l1.097-1.318l0.106,0.188l0.106,0.137c0.14,0.137,0.291,0.26,0.599,0.26c0.049,0,0.305-0.037,0.633-0.095
		c0.135-0.024,0.286-0.051,0.437-0.076c-0.16,0.557-0.354,1.14-0.355,1.144l-0.032,0.197c0,0.439,0.22,0.651,0.441,0.739
		l-2.424,2.221c-0.227,0.116-0.379,0.351-0.379,0.628l0.019,0.15c0,0.001,0.06,0.241,0.124,0.519
		c-1.036-0.206-2.74-0.548-2.74-0.548l-0.123-0.025l-2.863,0.569c0.064-0.276,0.122-0.516,0.123-0.517l0.083-0.339l-3.204-2.619
		c0.181-0.095,0.365-0.292,0.365-0.699c0-0.134-0.021-0.209-0.271-1.016c-0.033-0.105-0.066-0.215-0.101-0.323
		c0.436,0.075,0.846,0.157,0.849,0.158l0.123,0.012c0.312,0,0.53-0.189,0.609-0.271l0.272-0.406l0.849,1.02
		C160.679,55.762,160.891,55.95,161.297,55.95z"/>
	<path fill="#04716B" d="M57.813,84.665c4.395,0.237,6.778,2.251,18.242,11.937c1.229,0.994,2.501,2.075,3.904,3.27l1.716,1.456
		c17.631,14.745,24.719,16.136,39.075,16.136c12.006,0,20.352-7.555,23.025-10.348c1.183,0.375,2.436,0.559,3.816,0.559h0.115
		c0.997,0,3.529-0.198,5.52-2.036c1.761-1.582,2.654-3.99,2.654-7.156v-0.164c0-0.501-0.09-3.102-1.895-5.091
		c-1.421-1.418-3.3-2.138-5.585-2.138c-0.44,0-1.965,0.083-3.127,1.159c-0.72,0.71-1.085,1.627-1.085,2.809
		c0,1.38,1.158,2.502,2.582,2.502c1.401,0,2.586-1.183,2.586-2.583c0-0.37-0.081-0.733-0.227-1.062
		c1.125,0.104,2.055,0.482,2.653,1.085c1.183,1.251,1.137,3.197,1.136,3.217v0.105c0,2.209-0.57,3.899-1.673,5.004
		c-1.373,1.241-3.173,1.305-3.52,1.305l-0.136-0.001c-2.848,0-5.073-0.965-6.657-2.917l-0.029-0.021
		c-2.129-2.759-2.153-6.352-2.153-6.388c0-3.277,0.975-5.77,2.975-7.617c1.888-1.71,4.653-2.725,8.393-3.099h2.22l0.011,0.08h1.25
		v-2.256l-0.084-0.625v-0.081l-3.355,0.001c-2.552-0.167-6.086-0.827-8.439-3.032c-1.972-1.742-2.971-4.274-2.971-7.527
		c0-0.036,0.023-3.608,2.003-6.307l0.226-0.232c1.538-1.902,3.763-2.867,6.611-2.867l0.252-0.005c0.477,0,2.128,0.094,3.396,1.306
		c1.1,1.025,1.682,2.758,1.682,5.01v0.104c0.001,0.02,0.048,1.968-1.124,3.207c-0.683,0.684-1.56,1.071-2.666,1.176
		c0.146-0.328,0.228-0.69,0.228-1.061c0-1.4-1.185-2.584-2.586-2.584c-1.361,0-2.471,1.055-2.582,2.452l-0.002,0.13
		c0,1.067,0.385,2.036,1.099,2.741c1.147,1.064,2.675,1.147,3.116,1.147c2.289,0,4.168-0.717,5.43-2.069
		c1.703-1.793,1.887-4.149,1.887-5.079v-0.164c0-3.118-0.865-5.455-2.652-7.15c-2.13-1.968-4.743-2.067-5.245-2.067
		c-0.13,0-0.305,0.005-0.45,0.026c-1.355,0.005-2.588,0.187-3.755,0.555c-1.654-1.774-10.306-10.344-23.027-10.344l-1.036-0.003
		c-13.273,0-20.415,1.452-37.878,16.06l-1.822,1.524c-1.349,1.128-2.619,2.189-3.809,3.207
		c-11.452,9.677-13.835,11.69-18.198,11.927H39.139v2.881L57.813,84.665z M132.201,81.707l1.036-4.998L132.24,77
		c-1.02,0.297-1.319,0.371-1.372,0.379c-0.199,0-0.272-0.037-0.376-0.142l-4.835-6.123l-0.732,1.224
		c-0.056,0.108-0.243,0.23-0.424,0.231c-0.115-0.018-0.765-0.228-2.499-0.789l-0.998-0.323l0.191,1.032
		c0.3,1.618,0.391,2.107,0.397,2.173c0,0.113-0.058,0.249-0.153,0.37c-0.006,0.004-0.012,0.007-0.018,0.011l-1.655,0.994
		l2.899,2.484l0.089,0.092c0.106,0.105,0.145,0.261,0.145,0.371c0,0.387-0.292,0.678-0.646,0.68
		c-0.178-0.022-1.78-0.395-5.195-1.204l-1.351-0.319l0.655,1.223c0.346,0.647,0.556,1.038,0.578,1.172
		c0,0.264-0.104,0.315-0.185,0.357l-3.953,2.354l4.054,2.241l0.102,0.035c0.095,0.101,0.146,0.216,0.147,0.353
		c-0.025,0.093-0.234,0.485-0.582,1.136l-0.647,1.211l6.246-1.434h0.26c0.405,0,0.678,0.308,0.678,0.596
		c0,0.114-0.049,0.261-0.141,0.422c-0.065,0.052-0.121,0.114-0.164,0.187l-2.809,2.513l1.476,0.885l0.026,0.026
		c0.138,0.137,0.223,0.311,0.224,0.44c-0.008,0.08-0.099,0.568-0.396,2.189l-0.19,1.03l0.997-0.322
		c1.734-0.562,2.384-0.771,2.501-0.788c0.181,0,0.364,0.118,0.44,0.267l0.712,1.185l4.774-6.058l0.063-0.064
		c0.11-0.111,0.19-0.142,0.398-0.142c0.079,0.01,0.477,0.126,1.347,0.383l0.958,0.282l-0.165-0.985
		c-0.147-0.882-0.415-2.12-0.652-3.213l-0.082-0.377c-0.029-0.176-0.059-0.341-0.088-0.496h8.667
		c-0.37,0.262-0.745,0.552-1.134,0.875c-2.255,2.086-3.551,4.91-3.852,8.396c-0.772,0.664-3.568,2.918-7.42,4.328h-0.118
		l-0.132,0.065c-0.11,0.055-0.249,0.094-0.292,0.097c-0.195,0-0.354,0.074-0.465,0.149c-0.184,0.062-0.374,0.119-0.611,0.181
		c-0.137,0.013-0.242,0.05-0.309,0.08c-0.152,0-0.268,0.045-0.33,0.078l-0.2,0.033c-0.095,0.032-0.173,0.046-0.252,0.062
		c-0.095,0.02-0.189,0.039-0.296,0.069l-2.106,0.246l-2.146,0.002l-0.154-0.013c-0.935-0.08-1.9-0.162-2.859-0.383
		c-1.169-0.272-2.693-0.671-4.104-1.337c-0.224-0.112-0.457-0.225-0.696-0.339c-0.452-0.218-0.929-0.445-1.404-0.708l-0.224-0.078
		h-0.004c-0.105-0.06-0.211-0.126-0.316-0.192c-0.156-0.098-0.313-0.195-0.471-0.279c-0.064-0.049-0.153-0.104-0.262-0.14
		c-0.112-0.07-0.235-0.141-0.357-0.211c-0.126-0.071-0.251-0.143-0.359-0.215l-0.272-0.183c-0.234-0.155-0.469-0.31-0.771-0.468
		c-0.095-0.085-0.241-0.195-0.455-0.245c-0.063-0.047-0.122-0.095-0.181-0.142c-0.102-0.081-0.203-0.161-0.32-0.243
		c-0.094-0.08-0.178-0.12-0.201-0.121l-0.085-0.067c-0.273-0.183-0.54-0.396-0.726-0.585c-0.111-0.107-0.218-0.159-0.229-0.147
		l-0.104-0.087c-0.104-0.068-0.206-0.155-0.31-0.241c-0.125-0.104-0.25-0.206-0.375-0.292l-0.183-0.176
		c-0.146-0.111-0.276-0.223-0.406-0.334c-0.157-0.135-0.315-0.27-0.467-0.382c-0.895-0.745-1.806-1.576-2.712-2.473v-0.447h-0.364
		l-0.153-0.164h-0.08l-0.155-0.139c-0.815-0.825-2.982-3.019-5.321-4.735c-0.267-0.19-0.538-0.383-0.813-0.562
		c0.2-0.136,0.404-0.281,0.613-0.429l0.125-0.089c2.315-1.568,4.41-3.715,5.305-4.631l0.428-0.436
		c0.062-0.058,0.089-0.085,0.157-0.119l0.124-0.084c0.276-0.239,0.538-0.493,0.796-0.744c0.355-0.345,0.691-0.671,1.047-0.938
		l0.213-0.145c0.156-0.103,0.29-0.229,0.422-0.36c0.073-0.073,0.145-0.149,0.232-0.208l0.108-0.09
		c0.073-0.077,0.146-0.15,0.234-0.233c0.106-0.106,0.213-0.195,0.318-0.285c0.117-0.099,0.234-0.197,0.352-0.312
		c0.122-0.077,0.216-0.172,0.312-0.27c0.16-0.081,0.325-0.206,0.503-0.382c0.149-0.089,0.305-0.217,0.471-0.385
		c0.067-0.068,0.153-0.135,0.237-0.202c0.12-0.097,0.239-0.194,0.333-0.288c0.107-0.108,0.295-0.235,0.407-0.291l0.151-0.105
		c0.023-0.02,0.054-0.039,0.084-0.059c0.059-0.039,0.115-0.079,0.165-0.119c0.091-0.052,0.182-0.117,0.27-0.184
		c0.049-0.037,0.096-0.077,0.154-0.106c0.103-0.053,0.18-0.103,0.257-0.153c0.044-0.029,0.087-0.059,0.207-0.124
		c0.083-0.055,0.157-0.109,0.229-0.162c0.128-0.094,0.203-0.148,0.366-0.209c0.096-0.05,0.218-0.122,0.337-0.194
		c0.086-0.052,0.171-0.104,0.238-0.139l0.108-0.073c0.044-0.021,0.115-0.057,0.194-0.117c0.143-0.074,0.272-0.148,0.4-0.222
		c0.115-0.066,0.229-0.132,0.355-0.196c0.044-0.014,0.086-0.031,0.127-0.053l0.158-0.094c0.684-0.425,1.427-0.737,1.979-0.944
		c1.379-0.651,2.856-1.047,4.114-1.347c1.19-0.273,2.076-0.391,3.04-0.391l2.043-0.005l1.958,0.251h0.146
		c0.116,0.034,0.22,0.055,0.324,0.075c0.076,0.015,0.153,0.029,0.244,0.058l0.168,0.119h0.266c0.063,0.021,0.16,0.055,0.286,0.068
		c0.11,0.034,0.231,0.069,0.353,0.104c0.122,0.035,0.244,0.07,0.352,0.104l0.104,0.054c0.187,0.096,0.485,0.206,0.816,0.229
		c3.898,1.421,6.715,3.714,7.453,4.353c0.575,3.366,1.945,6.072,4.079,8.049c0.338,0.309,0.703,0.6,1.093,0.874H132.201z
		 M137.857,64.029c-1.063,1.704-1.578,3.571-1.827,4.944c-0.191-0.131-0.395-0.265-0.608-0.406l-0.099-0.065
		c0.454-1.943,0.991-3.598,1.664-5.124C137.323,63.626,137.613,63.843,137.857,64.029z M128.061,104.439v-2.856
		c0.312-0.086,0.607-0.183,0.89-0.281c0.247,1.883,0.655,3.74,1.218,5.537c-0.631,0.24-1.277,0.473-1.947,0.657
		C128.113,106.438,128.061,105.45,128.061,104.439z M131.685,100.095c0.306-0.144,0.632-0.304,0.969-0.486
		c0.443,1.764,1.051,3.494,1.812,5.161c-0.526,0.31-1.084,0.603-1.68,0.903C132.214,103.803,131.845,101.932,131.685,100.095z
		 M125.365,108.157c-1.007,0.151-1.923,0.246-2.767,0.285c0.674-2.127,1.088-4.134,1.259-6.099c0.441-0.046,0.882-0.096,1.321-0.146
		v2.241C125.179,105.658,125.243,106.932,125.365,108.157z M120.885,102.347c-0.188,2.03-0.654,4.083-1.391,6.115
		c-1.576-0.01-2.999-0.074-4.307-0.194c1.44-1.843,2.644-3.867,3.654-6.15C119.535,102.222,120.225,102.289,120.885,102.347z
		 M115.965,101.428c-1.056,2.298-2.457,4.424-4.174,6.331c-1.376-0.256-2.631-0.59-3.802-1.011c2.33-1.608,4.426-3.643,6.126-5.95
		C114.735,101.039,115.353,101.25,115.965,101.428z M111.484,99.587c-1.814,2.318-4.058,4.286-6.679,5.858
		c-0.646-0.312-1.331-0.685-1.995-1.059c2.609-1.419,4.944-3.402,6.826-5.803c0.07,0.045,0.143,0.089,0.222,0.127
		c0.15,0.077,0.283,0.152,0.415,0.229c0.153,0.088,0.306,0.175,0.481,0.264l0.042,0.022l0.15,0.124h0.084
		C111.182,99.435,111.332,99.512,111.484,99.587z M107.204,97.072c-1.92,2.398-4.448,4.297-7.359,5.523
		c-0.742-0.487-1.493-1.015-2.225-1.541c3.032-1.122,5.701-2.937,7.798-5.308c0.055,0.041,0.111,0.083,0.173,0.125
		c0.09,0.078,0.173,0.11,0.182,0.108l0.078,0.069c0.1,0.074,0.207,0.148,0.317,0.226c0.237,0.165,0.482,0.336,0.665,0.518
		c0.115,0.121,0.237,0.174,0.252,0.172C107.124,97.004,107.164,97.04,107.204,97.072z M97.561,65.543
		c0.727-0.521,1.471-1.042,2.21-1.526c2.843,1.129,5.423,3.04,7.349,5.438c-0.579,0.407-1.155,0.863-1.722,1.321
		C103.221,68.383,100.54,66.594,97.561,65.543z M90.723,91.439c2.53,0,4.903-1.189,6.476-3.215c0.878,0.769,1.603,1.496,2.068,1.972
		c-2.017,2.303-4.957,3.663-7.97,3.663H88.58c-0.722-0.586-1.387-1.171-2.008-1.72c-0.273-0.242-0.548-0.475-0.822-0.7H90.723z
		 M91.191,77.915c1.49,0.134,2.84,0.908,3.748,2.147c-0.482,0.354-1.02,0.716-1.684,1.138c-0.043,0.022-0.112,0.058-0.188,0.117
		c-0.179,0.088-0.341,0.161-0.48,0.222c-0.624-1.054-1.717-1.708-2.922-1.708h-9.743c0.301-0.241,0.613-0.496,0.942-0.764
		c0.424-0.345,0.871-0.709,1.349-1.09h8.511L91.191,77.915z M90.182,83.227c0,0.309-0.208,0.516-0.518,0.516H76.201
		c-0.308,0-0.514-0.207-0.514-0.516s0.206-0.516,0.514-0.516h13.463C89.974,82.711,90.182,82.918,90.182,83.227z M89.664,86.709
		l0.625-0.084v-0.06c0.954-0.185,1.789-0.785,2.303-1.66c0.13,0.06,0.276,0.132,0.445,0.217l0.019,0.02
		c0.058,0.057,0.186,0.168,0.366,0.227l0.187,0.115c0.444,0.275,0.933,0.579,1.406,0.913c-0.991,1.331-2.589,2.166-4.208,2.166
		h-8.595c-0.487-0.389-0.943-0.76-1.374-1.11c-0.319-0.261-0.623-0.508-0.916-0.743H89.664z M85.691,75.015
		c0.166-0.133,0.337-0.268,0.511-0.406l0.368-0.293c0.296-0.26,0.625-0.535,0.965-0.82c0.352-0.294,0.713-0.597,1.062-0.901h2.701
		c3.012,0,5.949,1.358,7.965,3.659c-0.476,0.47-1.225,1.198-2.072,1.964c-1.572-2.018-3.941-3.202-6.467-3.202H85.691z
		 M92.143,69.653c0.061-0.05,0.12-0.1,0.18-0.148c0.796-0.658,1.551-1.282,2.306-1.847c3.339,0.714,6.267,2.4,8.516,4.902
		c-0.1,0.085-0.2,0.174-0.303,0.277c-0.063,0.063-0.088,0.086-0.154,0.118l-0.654,0.607c-0.195,0.196-0.383,0.383-0.648,0.602
		C98.992,71.484,95.692,69.875,92.143,69.653z M103.187,93.934c-2.22,2.437-5.228,4.146-8.561,4.859
		c-0.762-0.57-1.524-1.201-2.328-1.865c-0.084-0.069-0.168-0.139-0.252-0.208c3.581-0.197,6.916-1.807,9.328-4.502
		c0.133,0.102,0.249,0.221,0.367,0.338c0.152,0.152,0.307,0.304,0.479,0.437c0.061,0.063,0.129,0.132,0.22,0.224
		c0.062,0.062,0.133,0.123,0.208,0.188c0.112,0.097,0.219,0.188,0.281,0.283l0.134,0.186L103.187,93.934z M107.915,59.636
		c1.204-0.424,2.456-0.761,3.792-1.02c1.677,1.857,3.101,3.985,4.242,6.335c-0.614,0.179-1.229,0.389-1.835,0.627
		C112.448,63.319,110.368,61.326,107.915,59.636z M102.739,62.137c0.669-0.386,1.319-0.748,1.989-1.055
		c2.543,1.464,4.825,3.439,6.65,5.755c-0.001,0.001-0.003,0.002-0.004,0.002c-0.143,0.082-0.284,0.164-0.448,0.245l-0.133,0.081
		c-0.055,0.021-0.123,0.05-0.263,0.125c-0.11,0.074-0.24,0.146-0.369,0.221c-0.158,0.089-0.315,0.18-0.377,0.228
		c-0.053,0.025-0.112,0.056-0.179,0.092C107.754,65.49,105.406,63.544,102.739,62.137z M115.19,58.189
		c1.347-0.124,2.747-0.188,4.306-0.198c0.736,2.035,1.203,4.087,1.392,6.115c-0.661,0.058-1.351,0.125-2.044,0.229
		C117.831,62.054,116.628,60.029,115.19,58.189z M122.595,58.01c0.943,0.043,1.871,0.155,2.77,0.336
		c-0.139,1.205-0.265,2.448-0.265,3.752v2.264c-0.446-0.072-0.889-0.125-1.322-0.176C123.607,62.05,123.217,60.017,122.595,58.01z
		 M130.167,59.62c-0.566,1.813-0.976,3.695-1.22,5.611c-0.288-0.106-0.581-0.212-0.887-0.318v-2.897c0-1.003,0.051-1.98,0.157-3.027
		C128.834,59.171,129.497,59.38,130.167,59.62z M134.542,61.699c-0.756,1.654-1.362,3.382-1.811,5.153
		c-0.261-0.136-0.523-0.264-0.781-0.39c-0.063-0.03-0.124-0.061-0.186-0.091c0.156-1.831,0.526-3.706,1.103-5.588
		C133.402,61.062,133.945,61.358,134.542,61.699z M136.903,103.154c-0.655-1.488-1.202-3.151-1.662-5.049
		c0.259-0.179,0.506-0.354,0.735-0.517c0.005-0.004,0.011-0.008,0.016-0.011c0.283,1.27,0.792,3.109,1.82,4.87
		C137.571,102.65,137.271,102.882,136.903,103.154z M137.085,59.864c-1.556-1.035-3.058-1.854-4.579-2.496
		c-1.534-0.694-3.35-1.301-5.262-1.756c-2.042-0.442-4.036-0.667-5.928-0.667h-0.896c-2.538,0-5.524,0.069-8.433,0.58
		c-2.998,0.544-5.512,1.339-7.905,2.5c-1.638,0.776-3.368,1.749-5.296,2.976c-1.44,0.937-3.111,2.127-5.42,3.859
		c-1.324,0.996-2.735,2.157-4.086,3.27c-0.773,0.603-1.461,1.206-2.051,1.724l-0.35,0.286c-0.769,0.625-1.471,1.197-2.103,1.755
		c-0.516,0.43-1.01,0.85-1.484,1.251c-0.874,0.74-1.679,1.422-2.431,2.013c-3.442,2.856-5.406,4.327-7.07,5.285
		c-0.04,0.03-0.402,0.306-0.769,0.762c-0.368,0.459-0.791,1.086-0.791,1.861c0,1.306,1.223,2.394,1.362,2.514l0.108,0.074
		c0.646,0.352,1.289,0.79,2.104,1.346l0.826,0.557c0.818,0.639,1.758,1.404,2.854,2.297l1.368,1.111
		c0.761,0.65,1.591,1.337,2.493,2.083l1.486,1.23c0.779,0.626,1.585,1.273,2.38,1.986c0.329,0.286,0.677,0.573,1.025,0.86
		c0.344,0.284,0.688,0.567,1.026,0.861c1.487,1.228,2.823,2.322,4.101,3.285c1.682,1.259,3.641,2.701,5.418,3.854
		c1.993,1.299,3.729,2.276,5.299,2.983c2.522,1.183,5.033,1.975,7.905,2.493c2.902,0.515,5.891,0.584,8.431,0.584h0.896
		c1.849,0,3.73-0.211,5.939-0.669c1.729-0.412,3.491-1,5.236-1.747c1.712-0.72,3.262-1.565,4.577-2.495
		c1.017-0.636,1.844-1.273,2.495-1.811c0.385,0.362,0.839,0.751,1.358,1.104c-2.7,2.947-10.317,9.013-20.259,9.013
		c-12.656,0-19.525-0.659-37.206-15.514l-0.988-0.829c-1.64-1.373-3.188-2.67-4.56-3.902c-7.413-6.262-11.312-9.504-14.464-11.107
		c3.084-1.563,6.756-4.647,14.295-10.979l0.253-0.213c0.875-0.744,1.822-1.537,2.841-2.39c0.876-0.733,1.805-1.511,2.783-2.338
		c17.61-14.779,24.448-15.436,37.046-15.436c10.306,0,17.834,6.409,20.213,8.721c-0.504,0.346-0.943,0.723-1.318,1.074
		C138.942,61.178,138.087,60.554,137.085,59.864z"/>
</g>
</svg>
