<?xml version="1.0" encoding="utf-8"?>
<!-- Generator: Adobe Illustrator 16.0.0, SVG Export Plug-In . SVG Version: 6.00 Build 0)  -->
<!DOCTYPE svg PUBLIC "-//W3C//DTD SVG 1.1//EN" "http://www.w3.org/Graphics/SVG/1.1/DTD/svg11.dtd">
<svg version="1.1" id="Layer_1" xmlns="http://www.w3.org/2000/svg" xmlns:xlink="http://www.w3.org/1999/xlink" x="0px" y="0px"
	 width="40px" height="40px" viewBox="0 0 40 40" enable-background="new 0 0 40 40" xml:space="preserve">
<path fill="#F2F2F2" d="M20,2.5C10.335,2.5,2.5,10.335,2.5,20S10.335,37.5,20,37.5S37.5,29.665,37.5,20S29.665,2.5,20,2.5z
	 M24.483,19.997h-2.875v10.437h-4.316V19.997H15.14v-3.592h2.152v-2.17c0-1.533,0.36-2.696,1.088-3.485
	c0.726-0.788,1.921-1.183,3.582-1.183h2.877v3.594h-1.798c-0.332,0-0.598,0.023-0.794,0.084c-0.197,0.054-0.342,0.151-0.43,0.292
	c-0.09,0.146-0.144,0.294-0.171,0.441c-0.024,0.147-0.038,0.357-0.038,0.627v1.8h3.252L24.483,19.997z"/>
</svg>
