<?xml version="1.0" encoding="utf-8"?>
<!-- Generator: Adobe Illustrator 16.0.0, SVG Export Plug-In . SVG Version: 6.00 Build 0)  -->
<!DOCTYPE svg PUBLIC "-//W3C//DTD SVG 1.1//EN" "http://www.w3.org/Graphics/SVG/1.1/DTD/svg11.dtd">
<svg version="1.1" id="Layer_1" xmlns="http://www.w3.org/2000/svg" xmlns:xlink="http://www.w3.org/1999/xlink" x="0px" y="0px"
	 width="40px" height="40px" viewBox="0 0 40 40" enable-background="new 0 0 40 40" xml:space="preserve">
<g>
	<path fill="#F2F2F2" d="M22.066,20.545c0-1.083-0.88-1.963-1.964-1.963c-1.083,0-1.964,0.88-1.964,1.963
		c0,1.08,0.881,1.961,1.964,1.961C21.187,22.506,22.066,21.625,22.066,20.545z"/>
	<path fill="#F2F2F2" d="M24.83,20.544c0,2.605-2.12,4.729-4.728,4.729c-2.606,0-4.729-2.123-4.729-4.729
		c0-0.719,0.162-1.399,0.45-2.009h-3.939v6.486c0,1.729,1.407,3.137,3.134,3.137h9.963c1.727,0,3.133-1.408,3.133-3.137v-6.486
		h-3.734C24.669,19.145,24.83,19.825,24.83,20.544z"/>
	<path fill="#F2F2F2" d="M20,2.5c-9.665,0-17.5,7.835-17.5,17.501C2.5,29.666,10.335,37.5,20,37.5s17.5-7.834,17.5-17.499
		C37.5,10.335,29.665,2.5,20,2.5z M29.96,25.022c0,2.745-2.232,4.978-4.978,4.978h-9.963c-2.745,0-4.978-2.232-4.978-4.978V14.979
		c0-2.746,2.233-4.979,4.978-4.979h9.961c2.747,0,4.978,2.233,4.979,4.979V25.022z"/>
	<path fill="#F2F2F2" d="M24.98,11.844h-9.962c-1.729,0-3.134,1.407-3.134,3.134v1.712h5.481c0.772-0.549,1.717-0.875,2.736-0.875
		c1.018,0,1.965,0.325,2.736,0.875h5.276v-1.712C28.115,13.25,26.708,11.844,24.98,11.844z M26.67,15.226
		c0,0.303-0.246,0.552-0.552,0.552h-1.709c-0.305,0-0.552-0.249-0.552-0.552v-1.709c0-0.305,0.247-0.554,0.552-0.554h1.709
		c0.306,0,0.552,0.249,0.552,0.554V15.226z"/>
</g>
</svg>
