<?xml version="1.0" encoding="utf-8"?>
<!-- Generator: Adobe Illustrator 16.0.0, SVG Export Plug-In . SVG Version: 6.00 Build 0)  -->
<!DOCTYPE svg PUBLIC "-//W3C//DTD SVG 1.1//EN" "http://www.w3.org/Graphics/SVG/1.1/DTD/svg11.dtd">
<svg version="1.1" id="Layer_1" xmlns="http://www.w3.org/2000/svg" xmlns:xlink="http://www.w3.org/1999/xlink" x="0px" y="0px"
	 width="40px" height="40px" viewBox="0 0 40 40" enable-background="new 0 0 40 40" xml:space="preserve">
<path fill="#F2F2F2" d="M20,2.5C10.335,2.5,2.5,10.335,2.5,20S10.335,37.5,20,37.5S37.5,29.665,37.5,20S29.665,2.5,20,2.5z
	 M28.141,16.824c0.007,0.123,0.012,0.304,0.012,0.545c0,1.128-0.162,2.25-0.495,3.374c-0.327,1.12-0.829,2.202-1.501,3.231
	c-0.671,1.033-1.474,1.943-2.398,2.74c-0.93,0.789-2.047,1.426-3.355,1.895c-1.308,0.475-2.708,0.713-4.202,0.713
	c-2.349,0-4.497-0.629-6.448-1.887c0.303,0.035,0.641,0.053,1.014,0.053c1.949,0,3.689-0.602,5.216-1.797
	c-0.913-0.014-1.728-0.295-2.446-0.838c-0.72-0.543-1.213-1.232-1.486-2.074c0.288,0.043,0.554,0.064,0.794,0.064
	c0.375,0,0.743-0.047,1.106-0.139c-0.969-0.199-1.775-0.688-2.411-1.451c-0.636-0.769-0.953-1.659-0.953-2.673v-0.051
	c0.587,0.328,1.222,0.506,1.898,0.532c-0.576-0.383-1.03-0.878-1.368-1.496c-0.337-0.614-0.506-1.281-0.506-1.999
	c0-0.766,0.188-1.475,0.572-2.123c1.049,1.292,2.323,2.325,3.829,3.1c1.506,0.778,3.117,1.21,4.83,1.296
	c-0.07-0.33-0.1-0.65-0.1-0.964c0-1.161,0.406-2.152,1.224-2.97c0.822-0.819,1.813-1.229,2.972-1.229
	c1.212,0,2.237,0.442,3.069,1.326c0.946-0.184,1.833-0.52,2.668-1.014c-0.322,0.997-0.937,1.767-1.85,2.314
	c0.808-0.09,1.615-0.306,2.423-0.652C29.666,15.5,28.962,16.226,28.141,16.824z"/>
</svg>
