<?xml version="1.0" encoding="utf-8"?>
<!-- Generator: Adobe Illustrator 16.0.0, SVG Export Plug-In . SVG Version: 6.00 Build 0)  -->
<!DOCTYPE svg PUBLIC "-//W3C//DTD SVG 1.1//EN" "http://www.w3.org/Graphics/SVG/1.1/DTD/svg11.dtd">
<svg version="1.1" id="Layer_1" xmlns="http://www.w3.org/2000/svg" xmlns:xlink="http://www.w3.org/1999/xlink" x="0px" y="0px"
	 width="40px" height="40px" viewBox="0 0 40 40" enable-background="new 0 0 40 40" xml:space="preserve">
<path fill="#F2F2F2" d="M20,2.5C10.335,2.5,2.5,10.335,2.5,20S10.335,37.5,20,37.5S37.5,29.665,37.5,20S29.665,2.5,20,2.5z
	 M24.986,14.526c-0.232-0.584-1.543-1.937-2.288-0.06c-1.074,2.71,0.75,5.918,3.394,5.879c0.348-0.006,2.172-0.04,2.172-0.04
	l0.006,2.399c0,0-0.855,0.303-2.099,0.185c-0.66,1.519-2.998,4.795-5.255,6.741c-0.563,0.485-1.401,0.506-2.14,0.078
	C13.368,26.4,11.5,13.832,11.5,13.832l3.425,0.04c0,0,1.05,8.638,4.941,12.646c0.174,0.18,3.307-3.892,3.073-4.162
	c-2.645-1.558-3.073-4.359-3.229-5.682c-0.154-1.323-0.193-3.969,1.791-5.215c1.985-1.245,4.696-0.69,5.776,0.403
	c1.636,1.658,1.359,4.853,0.729,6.628c-0.513,0.81-2.762,0.297-3.176-0.67C25.17,16.672,25.221,15.109,24.986,14.526z"/>
</svg>
