<?xml version="1.0" encoding="utf-8"?>
<!-- Generator: Adobe Illustrator 16.0.0, SVG Export Plug-In . SVG Version: 6.00 Build 0)  -->
<!DOCTYPE svg PUBLIC "-//W3C//DTD SVG 1.1//EN" "http://www.w3.org/Graphics/SVG/1.1/DTD/svg11.dtd">
<svg version="1.1" id="Layer_1" xmlns="http://www.w3.org/2000/svg" xmlns:xlink="http://www.w3.org/1999/xlink" x="0px" y="0px"
	 width="40px" height="40px" viewBox="0 0 40 40" enable-background="new 0 0 40 40" xml:space="preserve">
<g>
	<path fill="#F2F2F2" d="M22.371,22.156c-0.465,0-0.979,0.619-0.979,0.619v-2.37h-0.978v7.316h0.978v-0.565
		c0.206,0.255,0.566,0.616,1.185,0.616c0.617,0,0.723-1.03,0.723-1.03v-3.606C23.299,22.465,22.835,22.156,22.371,22.156z
		 M22.32,26.38c0,0,0,0.465-0.414,0.465c0,0-0.309,0-0.463-0.204v-3.35c0,0,0.205-0.206,0.463-0.206
		c0.257,0,0.414,0.206,0.414,0.565V26.38z"/>
	<path fill="#F2F2F2" d="M13.096,20.354v1.081h1.132v6.236h1.085v-6.236h1.183c0.051,0,0-1.081,0-1.081H13.096z"/>
	<path fill="#F2F2F2" d="M18.558,26.38c0,0.103-0.363,0.465-0.618,0.465c-0.26,0-0.26-0.204-0.26-0.204v-4.38h-0.978v4.481
		c0,0.669,0.208,1.03,0.775,1.03c0.566,0,1.082-0.672,1.082-0.672v0.621h0.979v-5.461h-0.979V26.38z"/>
	<path fill="#F2F2F2" d="M20,2.5C10.335,2.5,2.5,10.335,2.5,20S10.335,37.5,20,37.5S37.5,29.665,37.5,20S29.665,2.5,20,2.5z
		 M21.854,11.839h0.973v4.344c0,0-0.053,0.254,0.305,0.254c0,0,0.41-0.102,0.563-0.459v-4.139h0.971v5.417h-0.971v-0.613
		c0,0-0.563,0.664-1.073,0.664c-0.511,0-0.768-0.308-0.768-0.818V11.839z M18.176,13.321c0-0.154,0.051-0.511,0.051-0.511
		c0.217-0.722,0.815-0.934,1.149-0.997c0.138-0.025,0.318-0.025,0.45,0c0.332,0.059,0.941,0.267,1.161,0.998
		c0,0,0.05,0.356,0.05,0.511v2.555c0,0-0.014,0.436-0.256,0.818c-0.176,0.281-0.481,0.529-0.963,0.595
		c-0.082,0.011-0.308,0.014-0.376,0.007c-0.509-0.058-0.828-0.313-1.011-0.603c-0.243-0.383-0.256-0.818-0.256-0.818V13.321z
		 M15.519,10l0.767,2.811L17.051,10h1.073l-1.329,4.292v2.913h-1.022v-2.913L14.394,10H15.519z M27.832,28.854
		c-0.129,0.196-0.526,0.661-0.979,0.771c-1.03,0.208-4.046,0.259-6.825,0.259c-2.038,0-5.129-0.049-6.315-0.153
		c-2.317-0.209-2.112-3.09-2.214-5.488c0-1.106,0.102-2.55,0.309-3.682c0.463-2.009,1.751-1.752,3.606-1.856
		c0.198,0,1.647-0.051,4.533-0.051c4.274,0.051,5.616,0,6.799,0.206c1.804,0.258,1.65,3.142,1.752,5.359
		C28.446,26.828,28.436,28.046,27.832,28.854z"/>
	<path fill="#F2F2F2" d="M19.607,16.438c0,0,0.459,0.052,0.459-0.562v-2.555c0,0,0.051-0.664-0.459-0.664c0,0-0.51-0.052-0.51,0.664
		v2.555C19.097,16.489,19.607,16.438,19.607,16.438z"/>
	<path fill="#F2F2F2" d="M26.078,25.814v0.414c0,0,0,0.616-0.412,0.616s-0.565-0.312-0.565-0.616v-1.081h1.957V23.65
		c0,0,0.052-1.443-1.392-1.443c-1.235,0-1.337,0.619-1.443,0.929c0,0-0.102,0.309-0.102,0.515v2.578c0,0-0.052,1.544,1.597,1.544
		c0,0,1.136-0.102,1.289-1.03c0.103-0.672,0.051-0.928,0.051-0.928H26.078z M25.101,23.65c0-0.102,0.102-0.565,0.515-0.565
		c0.412,0,0.463,0.565,0.463,0.565v0.67h-0.978V23.65z"/>
</g>
</svg>
